<svg width="200" height="74" viewBox="0 0 200 74" fill="none" xmlns="http://www.w3.org/2000/svg">
<path d="M107.355 19.5736C107.301 19.5602 107.174 19.5269 106.973 19.4735C106.771 19.4201 106.5 19.3701 106.158 19.3234C105.815 19.2767 105.447 19.2533 105.051 19.2533C103.951 19.2533 103.109 19.6703 102.525 20.5042C101.942 21.3315 101.65 22.5857 101.65 24.2668C101.65 25.8813 101.952 27.0721 102.556 27.8393C103.159 28.5998 104.025 28.9801 105.151 28.9801C105.755 28.9801 106.349 28.8767 106.932 28.6699C107.516 28.4564 108.016 28.2229 108.431 27.9694C108.854 27.7159 109.065 27.5758 109.065 27.5491L110.202 29.3904C110.202 29.4304 109.941 29.6506 109.417 30.0508C108.894 30.4444 108.234 30.808 107.435 31.1416C106.637 31.4685 105.758 31.6319 104.799 31.6319C102.7 31.6319 101.077 31.0148 99.9296 29.7806C98.7826 28.5398 98.2091 26.7385 98.2091 24.3769C98.2091 22.7891 98.4941 21.4182 99.0643 20.2641C99.6344 19.1099 100.439 18.226 101.479 17.6122C102.525 16.9985 103.75 16.6916 105.151 16.6916C105.896 16.6916 106.62 16.765 107.325 16.9117C108.029 17.0518 108.643 17.2086 109.166 17.3821C109.689 17.5488 109.951 17.6389 109.951 17.6522L109.85 21.5449H107.828L107.355 19.5736Z" fill="#1FAB89"/>
<path d="M118.744 16.6916C120.81 16.6916 122.41 17.332 123.544 18.6129C124.677 19.8871 125.244 21.6717 125.244 23.9666C125.244 25.481 124.956 26.8186 124.379 27.9794C123.802 29.1402 122.99 30.0442 121.944 30.6913C120.897 31.3317 119.697 31.6519 118.342 31.6519C116.283 31.6519 114.703 31.0248 113.603 29.7706C112.503 28.5098 111.953 26.6752 111.953 24.2668C111.953 22.7124 112.225 21.3648 112.768 20.224C113.318 19.0832 114.106 18.2093 115.132 17.6022C116.159 16.9951 117.363 16.6916 118.744 16.6916ZM118.644 19.2533C117.571 19.2533 116.769 19.6336 116.239 20.3941C115.716 21.148 115.454 22.4055 115.454 24.1668C115.454 25.8613 115.692 27.1055 116.169 27.8993C116.652 28.6932 117.41 29.0902 118.442 29.0902C119.516 29.0902 120.331 28.6966 120.887 27.9094C121.451 27.1221 121.733 25.8413 121.733 24.0667C121.733 22.3989 121.478 21.1814 120.968 20.4142C120.465 19.6403 119.69 19.2533 118.644 19.2533Z" fill="#1FAB89"/>
<path d="M128.745 19.3934L127.196 18.773V17.0318L131.935 16.9317H133.897C135.983 16.9317 137.596 17.5355 138.736 18.743C139.877 19.9438 140.447 21.685 140.447 23.9666C140.447 25.481 140.165 26.7986 139.602 27.9194C139.038 29.0401 138.24 29.8974 137.207 30.4911C136.181 31.0849 134.973 31.3818 133.585 31.3818H127.196V29.6406L128.745 29.0201V19.3934ZM133.645 28.92C134.718 28.92 135.543 28.5498 136.12 27.8093C136.697 27.0621 136.986 25.8146 136.986 24.0667C136.986 22.3989 136.717 21.2047 136.181 20.4842C135.644 19.757 134.846 19.3934 133.786 19.3934H131.935V28.92H133.645Z" fill="#1FAB89"/>
<path d="M151.313 25.0274H147.148V28.92H150.84L151.313 27.2389H153.164V31.3818H142.409V29.6406L143.958 29.0201V19.3934L142.409 18.773V17.0318L147.148 16.9317H152.923V20.8845H151.061L150.548 19.3934H147.148V22.7758H151.313V25.0274Z" fill="#1FAB89"/>
<path d="M112.386 53.7973H105.826V52.0561L107.375 51.5057L106.882 50.0047H102.304L101.791 51.4857L103.401 52.0561V53.7973H97.1728V52.0561L98.682 51.4857L103.21 39.4073L106.51 39.3473L110.937 51.4857L112.386 52.0561V53.7973ZM104.658 42.9598L103.028 47.8132H106.198L104.658 42.9598Z" fill="#1FAB89"/>
<path d="M122.447 41.9891C122.393 41.9758 122.266 41.9424 122.065 41.889C121.863 41.8357 121.592 41.7856 121.25 41.7389C120.908 41.6922 120.539 41.6689 120.143 41.6689C119.043 41.6689 118.201 42.0858 117.617 42.9198C117.034 43.747 116.742 45.0012 116.742 46.6824C116.742 48.2968 117.044 49.4876 117.648 50.2548C118.251 51.0154 119.117 51.3956 120.243 51.3956C120.847 51.3956 121.441 51.2922 122.024 51.0854C122.608 50.8719 123.108 50.6384 123.523 50.3849C123.946 50.1314 124.157 49.9913 124.157 49.9646L125.294 51.8059C125.294 51.8459 125.033 52.0661 124.509 52.4664C123.986 52.86 123.326 53.2236 122.527 53.5571C121.729 53.884 120.851 54.0475 119.891 54.0475C117.792 54.0475 116.169 53.4304 115.022 52.1962C113.875 50.9553 113.301 49.1541 113.301 46.7924C113.301 45.2047 113.586 43.8337 114.156 42.6796C114.726 41.5255 115.531 40.6415 116.571 40.0278C117.617 39.414 118.842 39.1071 120.243 39.1071C120.988 39.1071 121.712 39.1805 122.417 39.3273C123.121 39.4674 123.735 39.6241 124.258 39.7976C124.781 39.9644 125.043 40.0544 125.043 40.0678L124.942 43.9605H122.92L122.447 41.9891Z" fill="#1FAB89"/>
<path d="M140.698 53.7973H134.138V52.0561L135.688 51.5057L135.195 50.0047H130.617L130.104 51.4857L131.713 52.0561V53.7973H125.485V52.0561L126.995 51.4857L131.522 39.4073L134.822 39.3473L139.249 51.4857L140.698 52.0561V53.7973ZM132.971 42.9598L131.341 47.8132H134.511L132.971 42.9598Z" fill="#1FAB89"/>
<path d="M142.751 41.809L141.201 41.1886V39.4473L145.94 39.3473H147.902C149.988 39.3473 151.601 39.951 152.742 41.1585C153.882 42.3594 154.452 44.1006 154.452 46.3822C154.452 47.8965 154.17 49.2141 153.607 50.3349C153.044 51.4557 152.245 52.3129 151.212 52.9067C150.186 53.5004 148.979 53.7973 147.59 53.7973H141.201V52.0561L142.751 51.4357V41.809ZM147.651 51.3356C148.724 51.3356 149.549 50.9653 150.126 50.2248C150.703 49.4776 150.991 48.2301 150.991 46.4822C150.991 44.8144 150.723 43.6202 150.186 42.8997C149.65 42.1726 148.851 41.809 147.792 41.809H145.94V51.3356H147.651Z" fill="#1FAB89"/>
<path d="M165.318 47.4429H161.153V51.3356H164.846L165.318 49.6544H167.17V53.7973H156.414V52.0561L157.964 51.4357V41.809L156.414 41.1886V39.4473L161.153 39.3473H166.928V43.3H165.067L164.554 41.809H161.153V45.1913H165.318V47.4429Z" fill="#1FAB89"/>
<path d="M169.031 52.0561L170.57 51.4357V41.809L169.031 41.1886V39.4473L174.343 39.3473L177.432 46.172L180.672 39.4473L185.612 39.3473V41.1886L184.133 41.809V51.4357L185.673 52.0561V53.7973H179.535V52.0561L181.145 51.4357V43.7303L180.592 45.0913L178.257 49.9046L176.034 50.0047L173.659 45.1513L173.317 44.0806V51.4357L174.897 52.0561V53.7973H169.031V52.0561Z" fill="#1FAB89"/>
<path d="M190.11 52.0561L191.649 51.4357V48.7938L187.876 41.7489L186.538 41.1886V39.4473L192.373 39.3473V41.1886L191.317 41.6189L193.38 46.0319L195.563 41.6489L194.436 41.1886V39.4473L200 39.3473V41.1886L198.571 41.7489L194.849 48.7738V51.4357L196.388 52.0561V53.7973H190.11V52.0561Z" fill="#1FAB89"/>
<path d="M0 14.7302V24.8172L39.4406 39.8676V29.4604L12.5566 19.6937L39.4406 10.4072V0L0 14.7302Z" fill="#1FAB89"/>
<path d="M24.3083 60.0416V50.1147L45.075 57.64L67.6124 48.5136V35.8649L77.1104 32.3424V55.0782L45.075 67.8871L24.3083 60.0416Z" fill="#1FAB89"/>
<path d="M10.6248 73.1707H20.7667V55.0782H18.3519V35.8649L12.5566 33.7834V55.0782H10.6248V73.1707Z" fill="#1FAB89"/>
<path d="M88.3791 14.7302V24.8172L48.9385 39.8676V29.4604L75.8225 19.6937L48.9385 10.4072V0L88.3791 14.7302Z" fill="#1FAB89"/>
</svg>
