<svg width="178" height="178" viewBox="0 0 178 178" fill="none" xmlns="http://www.w3.org/2000/svg">
<g clip-path="url(#clip0_214_3111)">
<path d="M5.13857 134.281H121.455V115.864C119.03 112.658 117.406 108.814 116.872 104.621H26.1656C24.5212 104.621 23.1852 103.285 23.1852 101.641C23.1852 99.9966 24.5212 98.6605 26.1656 98.6605H116.872C118.351 87.0268 128.3 78.0035 140.324 78.0035C153.355 78.0035 163.962 88.6095 163.962 101.641C163.962 106.985 162.194 111.897 159.193 115.864V134.281H172.861C175.698 134.281 178 131.979 178 129.143V27.81C178 24.9735 175.698 22.6714 172.861 22.6714H5.13857C2.30208 22.6714 0 24.9735 0 27.81V129.143C0 131.979 2.30208 134.281 5.13857 134.281ZM58.2303 38.8065H119.77C121.476 38.8065 122.853 40.1836 122.853 41.8896C122.853 43.5956 121.476 44.9728 119.77 44.9728H58.2303C56.5242 44.9728 55.1471 43.5956 55.1471 41.8896C55.1471 40.1836 56.5242 38.8065 58.2303 38.8065ZM26.1656 58.6208H151.834C153.479 58.6208 154.815 59.9568 154.815 61.6012C154.815 63.2455 153.479 64.5816 151.834 64.5816H26.1656C24.5212 64.5816 23.1852 63.2455 23.1852 61.6012C23.1852 59.9568 24.5212 58.6208 26.1656 58.6208Z" fill="#0B7077"/>
<path d="M126.697 120.941V134.281V152.246C126.697 154.116 128.218 155.329 129.8 155.329C130.602 155.329 131.404 155.02 132.041 154.342L138.063 147.847C138.68 147.189 139.502 146.86 140.324 146.86C141.146 146.86 141.969 147.189 142.585 147.847L148.608 154.342C149.245 155.02 150.046 155.329 150.848 155.329C152.431 155.329 153.952 154.116 153.952 152.246V134.281V120.941C150.108 123.675 145.401 125.278 140.324 125.278C135.247 125.278 130.561 123.675 126.697 120.941Z" fill="#0B7077"/>
<path d="M156.747 107.458C157.425 105.567 157.795 103.552 157.795 101.641C157.795 92.001 149.964 84.1698 140.324 84.1698C130.684 84.1698 122.853 92.001 122.853 101.641C122.853 104.313 123.654 107.602 125.032 110.089C125.546 111.014 126.142 111.898 126.82 112.699C130.026 116.604 134.898 119.092 140.324 119.092C145.75 119.092 150.622 116.604 153.828 112.699C155.061 111.199 156.069 109.39 156.747 107.458Z" fill="#0B7077"/>
</g>
<defs>
<clipPath id="clip0_214_3111">
<rect width="178" height="178" fill="white"/>
</clipPath>
</defs>
</svg>
