<svg width="390" height="390" viewBox="0 0 390 390" fill="none" xmlns="http://www.w3.org/2000/svg">
<path d="M217.183 360.407C203.736 354.042 198.378 338.91 196.482 324.815C196.162 322.475 195.492 320.042 196.256 317.795C197.02 315.549 199.376 313.716 201.638 314.348C203.518 314.87 204.618 316.758 205.873 318.248C207.544 320.258 209.751 321.751 212.238 322.553C213.861 323.076 215.787 323.24 217.121 322.179C218.946 320.72 218.681 317.897 218.307 315.572C217.542 311.262 216.793 306.951 216.06 302.64C215.532 300.34 215.376 297.97 215.6 295.62C215.943 293.28 217.199 290.94 219.305 289.973C221.411 289.006 224.367 289.793 225.217 291.993C225.468 292.939 225.656 293.9 225.779 294.871C226.005 295.831 226.637 296.821 227.596 296.938C228.556 297.055 229.39 296.236 229.975 295.433C231.972 292.679 233.095 289.38 234.109 286.112C235.123 282.844 236.075 279.513 237.822 276.58C239.569 273.647 242.237 271.12 245.536 270.34C248.836 269.56 252.736 271.042 254.116 274.17C255.497 277.298 254.163 280.956 252.556 283.967C250.116 288.425 247.045 292.508 243.438 296.088C242.719 296.661 242.2 297.448 241.956 298.334C241.714 299.972 243.446 301.267 245.076 301.517C246.901 301.798 248.758 301.298 250.606 301.205C252.455 301.111 254.553 301.579 255.536 303.178C256.885 305.393 255.318 308.225 253.641 310.198C250.272 314.13 246.254 317.454 241.761 320.026C240.154 320.939 238.446 321.797 237.268 323.232C236.091 324.667 235.615 326.898 236.722 328.396C237.83 329.893 240.069 330.057 241.8 329.417C243.532 328.778 244.975 327.538 246.574 326.609C249.569 324.862 253.734 324.379 256.254 326.797C257.039 327.642 257.618 328.658 257.944 329.766C258.271 330.873 258.335 332.041 258.133 333.177C257.718 335.441 256.851 337.598 255.583 339.518C251.543 346.462 245.735 352.211 238.75 356.179C231.769 360.001 225.015 361.865 217.191 360.415" fill="#F5F5F5"/>
<path d="M219.312 351C220.347 342.973 221.842 335.011 223.79 327.155L225.287 320.97C225.779 318.934 226.27 316.922 226.847 314.987C228.014 311.275 229.383 307.629 230.95 304.067C232.424 300.651 233.945 297.453 235.388 294.481C236.831 291.509 238.243 288.764 239.631 286.322C241.799 282.45 244.271 278.757 247.026 275.278C248.001 274.045 248.789 273.117 249.327 272.493C249.584 272.197 249.795 271.963 249.943 271.783C250.091 271.604 250.161 271.549 250.169 271.557C250.113 271.647 250.05 271.733 249.982 271.814L249.389 272.548C248.874 273.187 248.11 274.108 247.158 275.379C244.464 278.892 242.037 282.603 239.897 286.478C238.532 288.928 237.143 291.673 235.708 294.645C234.273 297.617 232.775 300.815 231.317 304.231C229.763 307.793 228.409 311.439 227.261 315.151C226.66 317.078 226.176 319.051 225.701 321.11L224.203 327.304C222.26 335.143 220.757 343.086 219.703 351.094" fill="#E0E0E0"/>
<path d="M226.98 314.956C226.811 314.653 226.677 314.331 226.582 313.997C226.348 313.381 226.044 312.437 225.685 311.337C224.967 309.075 224.078 305.916 223.111 302.437C222.144 298.958 221.216 295.815 220.459 293.576C220.085 292.453 219.773 291.541 219.554 290.924C219.423 290.604 219.321 290.273 219.25 289.934C219.438 290.225 219.593 290.536 219.71 290.862C219.983 291.463 220.334 292.36 220.748 293.467C221.582 295.698 222.557 298.826 223.532 302.32C224.507 305.815 225.326 308.872 225.981 311.243C226.286 312.32 226.535 313.225 226.761 313.95C226.864 314.278 226.937 314.615 226.98 314.956Z" fill="#E0E0E0"/>
<path d="M255.957 304.301C255.58 304.459 255.188 304.576 254.787 304.652C254.007 304.847 252.938 305.128 251.597 305.518C248.906 306.298 245.232 307.453 241.231 308.935C237.229 310.417 233.665 311.922 231.091 313.076C229.811 313.646 228.79 314.137 228.08 314.473C227.723 314.667 227.35 314.829 226.964 314.956C227.287 314.708 227.635 314.493 228.002 314.317C228.688 313.934 229.694 313.404 230.958 312.757C233.477 311.524 237.034 309.972 241.043 308.482C244.465 307.202 247.951 306.101 251.488 305.183C252.845 304.824 253.952 304.59 254.725 304.442C255.13 304.357 255.543 304.31 255.957 304.301Z" fill="#E0E0E0"/>
<path d="M219.586 350.399C219.486 350.297 219.397 350.185 219.32 350.064L218.626 349.073C218.026 348.2 217.191 346.928 216.185 345.337C214.157 342.155 211.505 337.67 208.642 332.678C205.78 327.686 203.182 323.185 201.209 319.972L198.869 316.157L198.245 315.12C198.162 315.005 198.097 314.879 198.05 314.746C198.05 314.746 198.151 314.847 198.315 315.073C198.479 315.299 198.736 315.666 199.009 316.072C199.61 316.937 200.444 318.209 201.458 319.808C203.479 322.99 206.138 327.467 209.001 332.459C211.864 337.451 214.461 341.952 216.427 345.173L218.767 348.98C219.016 349.393 219.227 349.76 219.391 350.017C219.474 350.134 219.54 350.263 219.586 350.399Z" fill="#E0E0E0"/>
<path d="M257.166 330.86C257.056 330.956 256.932 331.035 256.799 331.094L255.715 331.672L251.69 333.77C248.289 335.548 243.625 338.052 238.477 340.79C233.329 343.528 228.641 346.031 225.217 347.732C223.501 348.582 222.097 349.292 221.13 349.705L219.96 350.22C219.831 350.288 219.695 350.34 219.554 350.376C219.666 350.282 219.789 350.204 219.921 350.142L221.013 349.565L225.038 347.459C228.431 345.688 233.095 343.184 238.243 340.439C243.391 337.693 248.087 335.205 251.503 333.505C253.219 332.654 254.623 331.945 255.59 331.531L256.713 331.016C256.855 330.941 257.008 330.889 257.166 330.86Z" fill="#E0E0E0"/>
<path d="M119.652 192.98C119.652 192.98 110.386 194.267 115.588 214.562C120.791 234.858 125.206 245.326 125.206 245.326C125.206 245.326 125.9 249.92 122.195 249.779C118.49 249.639 110.932 246.659 108.365 250.63C105.713 254.779 108.038 259.771 113.825 265.005C119.613 270.239 131.953 282.165 133.06 283.249C134.168 284.333 134.979 286.564 132.436 286.868C129.893 287.173 111.86 285.059 111.376 293.678C110.893 302.297 129.48 314.215 131.485 315.557C133.489 316.898 133.825 317.944 133.357 319.114C132.889 320.284 126.914 318.997 121.758 318.599C116.602 318.201 110.549 318.661 110.682 323.653C110.815 328.645 120.58 341.281 149.05 350.672L162.536 354.159L172.497 344.347C192.543 322.046 194.735 306.236 192.371 301.837C190.008 297.437 184.571 300.05 180.25 302.952C175.929 305.854 171.405 309.972 170.438 309.192C169.471 308.412 169.221 307.336 170.297 305.175C171.374 303.014 181.584 283.436 176.873 276.198C172.162 268.96 157.56 279.739 155.22 280.73C152.88 281.72 152.459 279.365 152.88 277.898C153.301 276.432 158.059 259.958 160.508 252.509C162.958 245.06 162.49 239.585 158.122 237.307C153.91 235.115 148.847 241.48 145.696 243.446C142.545 245.411 140.876 241.106 140.876 241.106C140.876 241.106 139.503 229.835 133.934 209.633C128.365 189.431 119.48 193.05 119.48 193.05" fill="#EBEBEB"/>
<path d="M162.529 357.513C158.496 342.693 151.765 316.173 145.876 293.405C139.987 270.637 134.636 250.107 130.673 235.24C128.692 227.815 127.085 221.809 125.993 217.636C125.447 215.569 125.018 213.954 124.722 212.846L124.394 211.598C124.324 211.318 124.301 211.169 124.301 211.169C124.301 211.169 124.355 211.302 124.441 211.583C124.527 211.864 124.644 212.293 124.8 212.823C125.12 213.931 125.58 215.53 126.157 217.589C127.327 221.731 128.981 227.729 130.993 235.154C135.026 249.974 140.431 270.574 146.32 293.296C152.209 316.017 158.886 342.56 162.848 357.427" fill="#E0E0E0"/>
<path d="M118.771 255.263C119.082 255.391 119.38 255.551 119.66 255.739C120.214 256.066 121.009 256.565 122 257.189C123.942 258.445 126.586 260.247 129.464 262.283L136.812 267.524L139.051 269.084C139.333 269.26 139.594 269.467 139.831 269.701C139.516 269.573 139.215 269.414 138.933 269.225C138.38 268.897 137.584 268.398 136.594 267.766C134.667 266.495 132.046 264.646 129.168 262.618L121.781 257.431L119.535 255.871C119.259 255.696 119.003 255.492 118.771 255.263Z" fill="#E0E0E0"/>
<path d="M140.962 269.053C140.86 268.991 144.331 263.383 148.707 256.526C153.083 249.67 156.725 244.163 156.827 244.226C156.928 244.288 153.457 249.904 149.074 256.76C144.69 263.617 141.063 269.1 140.962 269.053Z" fill="#E0E0E0"/>
<path d="M148.434 304.372C148.65 304.102 148.899 303.861 149.175 303.654L151.273 301.813C153.044 300.253 155.485 298.1 158.09 295.62C160.696 293.14 162.989 290.823 164.627 289.13C165.407 288.35 166.046 287.656 166.569 287.126C166.805 286.864 167.067 286.627 167.349 286.416C167.176 286.714 166.967 286.989 166.725 287.235C166.304 287.742 165.672 288.46 164.876 289.333C163.316 291.088 161.039 293.452 158.418 295.932C155.797 298.412 153.332 300.55 151.507 302.047C150.587 302.827 149.838 303.389 149.308 303.787C149.039 304.013 148.746 304.209 148.434 304.372Z" fill="#E0E0E0"/>
<path d="M125.619 296.314C125.934 296.352 126.243 296.428 126.54 296.54L129.012 297.32C131.087 297.983 133.95 298.927 137.101 299.988C140.252 301.049 143.099 302.047 145.15 302.788L147.576 303.677C147.878 303.772 148.169 303.9 148.442 304.06C148.127 304.028 147.817 303.954 147.522 303.841L145.049 303.061C142.974 302.398 140.112 301.454 136.96 300.386C133.809 299.317 130.962 298.327 128.911 297.593L126.485 296.696C126.181 296.608 125.889 296.48 125.619 296.314Z" fill="#E0E0E0"/>
<path d="M128.255 328.333C128.657 328.393 129.051 328.493 129.433 328.63L132.6 329.597C135.268 330.431 138.941 331.609 142.997 332.943C147.053 334.277 150.712 335.494 153.356 336.406L156.476 337.498C156.864 337.623 157.242 337.776 157.607 337.958C157.203 337.899 156.806 337.8 156.421 337.662L153.254 336.695C150.587 335.86 146.913 334.682 142.857 333.349C138.801 332.015 135.143 330.79 132.506 329.885L129.386 328.786C128.997 328.669 128.618 328.518 128.255 328.333Z" fill="#E0E0E0"/>
<path d="M156.967 337.529C157.242 337.192 157.547 336.881 157.88 336.601L160.462 334.175C162.638 332.124 165.633 329.277 168.854 326.04C172.076 322.803 174.923 319.8 176.966 317.616L179.384 315.026C179.669 314.696 179.98 314.388 180.313 314.106C180.085 314.473 179.824 314.817 179.533 315.136C179.002 315.783 178.207 316.696 177.193 317.819C175.204 320.065 172.396 323.107 169.159 326.344C165.922 329.581 162.919 332.405 160.672 334.402C159.549 335.392 158.636 336.196 157.989 336.742C157.671 337.032 157.329 337.296 156.967 337.529Z" fill="#E0E0E0"/>
<path d="M79.4038 71.9472L71.791 69.6072C71.791 69.6072 69.7942 76.0032 63.1174 74.0454C61.8248 73.6895 60.6748 72.9405 59.8265 71.9022C58.9783 70.8639 58.4738 69.5877 58.3828 68.25C58.2829 67.122 58.4537 65.9864 58.881 64.9377C59.3084 63.889 59.9799 62.9575 60.8398 62.2206C62.7976 60.489 66.2296 59.436 71.0734 61.9398L76.432 44.7798L68.905 42.4398L65.785 52.494C65.785 52.494 54.3658 51.9246 50.7388 63.5544C47.2678 74.685 56.4406 80.3868 60.715 81.7206C63.9598 82.7346 75.3556 85.4178 79.4038 71.9472Z" fill="#F5F5F5"/>
<path d="M69.9249 38.8681L77.5645 41.252L79.7903 34.1188L72.1508 31.7349L69.9249 38.8681Z" fill="#F5F5F5"/>
<path d="M100.41 52.572L103.459 51.792C103.366 51.4457 103.344 51.0842 103.393 50.7289C103.443 50.3737 103.563 50.032 103.747 49.7242C103.931 49.4164 104.175 49.1488 104.465 48.9372C104.754 48.7256 105.084 48.5745 105.433 48.4926C105.941 48.3392 106.484 48.3477 106.987 48.5168C107.49 48.6859 107.928 49.0073 108.241 49.4364C108.506 49.7928 108.683 50.2068 108.758 50.6447C108.832 51.0825 108.802 51.5318 108.67 51.9558C108.381 52.9464 107.453 54.0228 105.3 54.2022L107.118 61.074L110.128 60.294L109.068 56.2692C110.209 55.5806 111.093 54.5355 111.582 53.2951C112.071 52.0547 112.139 50.6878 111.774 49.4052C110.604 44.9436 106.314 44.967 104.622 45.4116C103.311 45.7158 98.9353 47.2056 100.41 52.572Z" fill="#EBEBEB"/>
<path d="M111.19 61.2961L108.119 62.1195L108.887 64.987L111.959 64.1637L111.19 61.2961Z" fill="#EBEBEB"/>
<path d="M352.201 131.516L355.165 132.584C355.29 132.249 355.48 131.941 355.725 131.68C355.97 131.42 356.264 131.21 356.591 131.065C356.919 130.919 357.271 130.841 357.629 130.834C357.987 130.827 358.343 130.892 358.675 131.024C359.174 131.185 359.612 131.496 359.927 131.915C360.243 132.334 360.421 132.84 360.438 133.364C360.456 133.812 360.368 134.257 360.181 134.664C359.994 135.071 359.713 135.427 359.362 135.704C358.582 136.352 357.185 136.703 355.313 135.626L352.888 142.311L355.82 143.372L357.24 139.472C358.571 139.554 359.893 139.198 361.002 138.456C362.111 137.715 362.946 136.631 363.379 135.369C364.939 131.032 361.421 128.622 359.759 128.021C358.488 127.522 354.042 126.266 352.201 131.516Z" fill="#EBEBEB"/>
<path d="M355.382 144.727L352.404 143.648L351.398 146.428L354.375 147.506L355.382 144.727Z" fill="#EBEBEB"/>
<path d="M37.6428 165.461L43.8828 163.043C43.8828 163.043 41.8548 157.778 47.2914 155.571C48.3319 155.131 49.4833 155.024 50.587 155.266C51.6906 155.507 52.6921 156.086 53.4534 156.92C54.1011 157.614 54.5757 158.452 54.8387 159.364C55.1016 160.276 55.1454 161.237 54.9666 162.17C54.5766 164.338 52.8606 166.85 48.3444 167.716L53.8044 181.857L60.0444 179.47L56.8464 171.187C56.8464 171.187 64.6464 165.586 60.9882 155.992C57.4392 146.819 48.36 147.865 44.8734 149.214C42.1824 150.251 33.2592 154.44 37.6428 165.461Z" fill="#F5F5F5"/>
<path d="M61.2266 182.349L54.9307 184.774L57.1964 190.655L63.4923 188.23L61.2266 182.349Z" fill="#F5F5F5"/>
<path d="M354.642 189.259L350.196 190.967C350.196 190.967 351.632 194.704 347.778 196.264C347.041 196.572 346.226 196.646 345.445 196.476C344.663 196.306 343.953 195.899 343.41 195.312C342.952 194.82 342.616 194.226 342.43 193.58C342.244 192.933 342.214 192.252 342.342 191.591C342.623 190.031 343.839 188.284 347.022 187.691L343.2 177.637L338.801 179.33L341.063 185.203C339.462 186.428 338.307 188.145 337.778 190.09C337.248 192.035 337.371 194.1 338.13 195.967C340.634 202.465 347.045 201.731 349.541 200.772C351.429 200.031 357.747 197.067 354.642 189.259Z" fill="#F5F5F5"/>
<path d="M337.93 177.292L342.392 175.573L340.788 171.41L336.326 173.129L337.93 177.292Z" fill="#F5F5F5"/>
<path d="M367.201 361.741C367.201 361.858 290.098 361.943 195.008 361.943C99.9179 361.943 22.7993 361.858 22.7993 361.741C22.7993 361.624 99.8867 361.538 195.008 361.538C290.129 361.538 367.201 361.631 367.201 361.741Z" fill="#263238"/>
<path d="M72.2592 341.484C73.0392 338.614 71.1126 335.735 69.0066 333.684C66.9006 331.633 64.3812 329.745 63.2814 326.992C61.503 322.53 63.8898 316.758 60.8634 313.037C59.0772 310.853 55.8792 310.12 54.2958 307.78C53.5637 306.491 53.0796 305.075 52.8684 303.607C51.1854 296.197 47.5403 289.375 42.315 283.858C41.9628 290.458 43.3934 297.032 46.4568 302.89C47.6814 305.23 49.1946 307.507 49.5768 310.12C50.2398 314.356 47.8686 318.7 48.9138 322.881C50.1072 327.639 55.4502 330.829 55.6998 335.728C55.9182 339.869 52.3068 343.528 52.5798 347.646C52.7986 349.41 53.4379 351.095 54.444 352.56C57.642 357.887 62.3532 361.553 69.4824 361.436L78.2184 361.741L72.2592 341.484Z" fill="#29CC7A"/>
<g opacity="0.3">
<path d="M72.2592 341.484C73.0392 338.614 71.1126 335.735 69.0066 333.684C66.9006 331.633 64.3812 329.745 63.2814 326.992C61.503 322.53 63.8898 316.758 60.8634 313.037C59.0772 310.853 55.8792 310.12 54.2958 307.78C53.5637 306.491 53.0796 305.075 52.8684 303.607C51.1854 296.197 47.5403 289.375 42.315 283.858C41.9628 290.458 43.3934 297.032 46.4568 302.89C47.6814 305.23 49.1946 307.507 49.5768 310.12C50.2398 314.356 47.8686 318.7 48.9138 322.881C50.1072 327.639 55.4502 330.829 55.6998 335.728C55.9182 339.869 52.3068 343.528 52.5798 347.646C52.7986 349.41 53.4379 351.095 54.444 352.56C57.642 357.887 62.3532 361.553 69.4824 361.436L78.2184 361.741L72.2592 341.484Z" fill="black"/>
</g>
<path d="M79.9811 361.92C80.7812 362.044 81.5966 362.028 82.3913 361.873C83.3562 361.727 84.3045 361.486 85.2227 361.156C86.4909 360.715 87.677 360.066 88.7327 359.237C89.3679 358.726 89.8642 358.063 90.1757 357.31C90.4367 356.466 90.5733 355.589 90.5813 354.705C90.5989 353.761 90.6692 352.818 90.7919 351.881C90.9563 350.884 91.3168 349.93 91.8527 349.073C92.8823 347.264 94.5983 345.548 95.1443 343.091C95.6903 340.634 95.3159 338.06 94.9103 335.439C94.5047 332.818 94.1303 329.979 95.1131 327.233C96.0959 324.488 97.9679 322.031 98.9273 318.958C99.8867 315.884 99.4343 312.499 99.6371 309.2C99.697 307.524 100.084 305.876 100.776 304.348C101.478 302.788 102.461 301.345 103.225 299.723C104.785 296.431 105.05 292.703 105.472 289.045C105.682 287.204 105.885 285.34 106.096 283.468C106.228 281.575 106.555 279.701 107.071 277.875C107.662 276.034 108.36 274.23 109.161 272.47C109.573 271.559 109.912 270.618 110.175 269.654C110.322 268.656 110.416 267.651 110.456 266.643C110.549 264.625 110.47 262.603 110.222 260.598C109.988 258.586 109.621 256.589 109.403 254.569C109.403 254.444 109.403 254.327 109.403 254.218L109.356 253.82L109.005 253.991C107.161 254.938 105.559 256.296 104.325 257.962C103.114 259.592 102.14 261.386 101.431 263.289C99.9725 267.041 99.4499 270.972 98.7167 274.724C97.9835 278.476 97.0475 282.165 95.1287 285.285C94.1693 286.845 93.0071 288.265 92.0087 289.778C90.9246 291.255 90.1838 292.955 89.8403 294.754C89.3177 298.451 91.3535 301.696 90.9323 304.972C90.7423 306.577 90.2103 308.122 89.3723 309.504C88.5923 310.9 87.6485 312.195 86.7593 313.49C85.8581 314.76 85.0748 316.11 84.4193 317.522C83.8024 318.905 83.4378 320.387 83.3429 321.898C83.1323 324.847 83.5457 327.639 83.3429 330.275C83.0994 332.788 82.3653 335.229 81.1823 337.459C80.1293 339.604 78.9515 341.546 77.9687 343.434C77.4773 344.37 77.0171 345.29 76.6427 346.219C76.2885 347.11 76.0271 348.035 75.8627 348.98C75.6017 350.63 75.5807 352.308 75.8003 353.964C76.0295 356.273 76.8934 358.473 78.2963 360.321C78.5108 360.6 78.7482 360.861 79.0061 361.101C79.1784 361.282 79.3693 361.444 79.5755 361.585C79.9031 361.826 80.0747 361.936 80.0747 361.936C79.4512 361.443 78.8836 360.883 78.3821 360.266C77.043 358.412 76.234 356.228 76.0421 353.948C75.8435 352.314 75.8803 350.659 76.1513 349.034C76.3156 348.112 76.577 347.21 76.9313 346.343C77.3266 345.405 77.7718 344.489 78.2651 343.598C79.2557 341.726 80.4413 339.791 81.5177 337.631C82.7361 335.366 83.4942 332.882 83.7485 330.322C83.9825 327.631 83.5769 324.823 83.7953 321.953C83.8958 320.49 84.2522 319.057 84.8483 317.717C85.5079 316.334 86.2911 315.013 87.1883 313.771C88.0775 312.476 89.0213 311.181 89.8325 309.754C90.7228 308.319 91.2923 306.71 91.5017 305.035C91.9229 301.548 89.9027 298.288 90.4253 294.848C90.7672 293.127 91.4836 291.503 92.5235 290.09C93.5141 288.6 94.6841 287.18 95.6435 285.581C97.6325 282.376 98.5919 278.616 99.3173 274.849C100.043 271.081 100.581 267.181 102.016 263.5C102.706 261.649 103.654 259.906 104.832 258.32C106.019 256.722 107.559 255.42 109.333 254.514L108.935 254.288C108.935 254.405 108.935 254.522 108.974 254.647C109.192 256.69 109.559 258.687 109.754 260.684C110 262.657 110.076 264.649 109.98 266.635C109.94 267.611 109.852 268.585 109.715 269.552C109.463 270.485 109.134 271.396 108.732 272.275C107.927 274.053 107.224 275.876 106.626 277.735C106.106 279.589 105.777 281.492 105.643 283.413C105.44 285.293 105.23 287.157 105.027 288.998C104.606 292.672 104.333 296.338 102.843 299.512C102.063 301.072 101.127 302.562 100.402 304.153C99.6876 305.738 99.2902 307.447 99.2315 309.184C99.0365 312.554 99.4733 315.853 98.5607 318.833C97.6481 321.812 95.7527 324.293 94.7933 327.109C93.8339 329.924 94.1849 332.904 94.6061 335.517C95.0273 338.13 95.4485 340.704 94.8869 343.021C94.3253 345.337 92.7185 347.069 91.6733 348.925C91.1223 349.819 90.7538 350.813 90.5891 351.85C90.4713 352.797 90.4088 353.751 90.4019 354.705C90.4032 355.566 90.277 356.423 90.0275 357.248C89.7386 357.962 89.2746 358.593 88.6781 359.081C87.6507 359.909 86.4938 360.563 85.2539 361.015C84.3478 361.365 83.41 361.626 82.4537 361.795C81.8693 361.901 81.2771 361.959 80.6831 361.967C80.1917 361.92 79.9811 361.92 79.9811 361.92Z" fill="#263238"/>
<path d="M107.578 259.038C107.536 259.122 107.507 259.211 107.492 259.303L107.305 260.083C107.133 260.777 106.922 261.815 106.595 263.11C106.267 264.404 105.464 265.871 104.785 267.673C103.99 269.701 103.298 271.768 102.71 273.866C102.04 276.206 101.455 278.78 100.831 281.557C100.3 284.514 99.3604 287.384 98.0381 290.082C97.3205 291.502 96.4781 292.937 95.8775 294.512C95.2477 296.121 94.8257 297.804 94.6217 299.52C94.1781 303.074 93.548 306.602 92.7341 310.089C90.9869 317.242 89.3177 324.059 87.7967 330.268C86.2757 336.476 84.8405 342.03 83.6549 346.726C82.4693 351.421 81.5723 355.165 80.9171 357.841C80.6129 359.12 80.3711 360.126 80.1995 360.867C80.1293 361.187 80.0669 361.444 80.0201 361.647C80.0115 361.738 80.0115 361.829 80.0201 361.92C80.0655 361.839 80.0996 361.753 80.1215 361.663C80.1761 361.452 80.2541 361.202 80.3477 360.883C80.5427 360.157 80.8157 359.151 81.1667 357.88C81.8687 355.228 82.8593 351.46 84.0839 346.819C85.3085 342.178 86.7359 336.562 88.3349 330.392C89.9339 324.223 91.5563 317.359 93.3191 310.198C94.1278 306.702 94.7424 303.163 95.1599 299.598C95.3593 297.923 95.768 296.28 96.3767 294.707C96.9929 293.147 97.7807 291.751 98.4983 290.316C100.058 287.469 100.675 284.411 101.291 281.658C101.907 278.905 102.453 276.299 103.093 273.975C103.732 271.651 104.403 269.576 105.074 267.782C105.745 265.988 106.486 264.506 106.805 263.164C107.125 261.823 107.273 260.824 107.414 260.107C107.466 259.784 107.513 259.524 107.554 259.327C107.578 259.132 107.593 259.038 107.578 259.038Z" fill="#263238"/>
<path d="M81.5254 361.959C87.2272 358.566 88.8652 348.27 86.4862 342.077C84.1072 335.884 79.942 330.221 79.3024 323.614C78.8032 318.536 80.4724 313.326 79.3024 308.365C77.7034 301.665 71.167 296.478 71.245 289.591C71.284 285.73 73.4836 282.095 73.3042 278.234C73.0936 273.507 69.4588 269.747 67.2124 265.582C63.7648 259.194 63.5386 251.651 62.3608 244.522C61.183 237.393 58.4608 229.702 52.1116 226.184C51.1756 232.261 49.5766 236.426 50.0758 244.655C50.263 247.611 53.695 253.235 54.163 259.748C54.4438 263.648 54.631 267.501 54.8728 271.37C55.1146 275.239 55.3486 278.983 56.698 282.508C57.7354 285.215 59.3968 287.672 60.169 290.464C61.612 295.714 59.7088 301.384 60.8788 306.719C61.8694 311.228 64.9894 315.104 65.629 319.675C66.5182 326.095 62.3686 332.771 64.4902 338.894C65.551 341.936 68.047 344.354 68.7568 347.513C69.3106 349.947 68.71 352.529 69.2092 354.97C69.9892 358.917 77.524 361.99 81.541 361.733" fill="#29CC7A"/>
<path d="M53.672 232.183C53.6614 232.297 53.6614 232.412 53.672 232.526C53.672 232.783 53.75 233.111 53.7968 233.524C53.9294 234.406 54.0776 235.693 54.374 237.362C54.6704 239.031 55.5596 240.919 56.246 243.196C56.9324 245.474 57.6968 248.079 58.3364 250.996C58.976 253.913 59.5376 257.166 60.107 260.653C60.6764 264.139 61.3004 267.938 63.032 271.573C63.812 273.39 64.7324 275.215 65.372 277.165C66.0274 279.161 66.4309 281.231 66.5732 283.327C66.8921 287.774 67.452 292.201 68.2502 296.587C69.9974 305.588 71.6588 314.161 73.172 321.968C74.6852 329.776 76.2062 336.742 77.423 342.638C78.6398 348.535 79.6382 353.246 80.3324 356.569L81.1124 360.352C81.206 360.758 81.2762 361.078 81.3386 361.327C81.3597 361.442 81.3911 361.554 81.4322 361.663C81.4461 361.549 81.4461 361.433 81.4322 361.319C81.3854 361.062 81.3308 360.742 81.2606 360.329C81.089 359.424 80.8472 358.145 80.543 356.522C79.8878 353.192 78.983 348.434 77.8052 342.56C76.6274 336.687 75.2312 329.644 73.679 321.867C72.1268 314.09 70.559 305.487 68.804 296.494C68.0053 292.107 67.4428 287.681 67.1192 283.234C66.9708 281.094 66.5541 278.982 65.879 276.947C65.1848 274.966 64.2722 273.133 63.4688 271.323C61.7528 267.743 61.1288 264.007 60.536 260.536C59.9432 257.065 59.3738 253.804 58.6952 250.871C58.0166 247.939 57.2756 245.318 56.5112 243.071C55.7468 240.825 54.8966 238.922 54.5534 237.292C54.2102 235.661 54.0464 234.351 53.8826 233.485C53.8046 233.08 53.7422 232.752 53.6954 232.495C53.6938 232.39 53.686 232.286 53.672 232.183Z" fill="#263238"/>
<path d="M328.746 69.2406H325.626C325.629 69.5944 325.56 69.9451 325.424 70.2719C325.288 70.5987 325.088 70.8948 324.836 71.1429C324.583 71.3909 324.284 71.5858 323.955 71.7159C323.625 71.846 323.274 71.9087 322.92 71.9004C322.397 71.9191 321.882 71.7744 321.446 71.4863C321.01 71.1983 320.674 70.7813 320.486 70.2936C320.322 69.8874 320.256 69.4481 320.294 69.0116C320.332 68.575 320.473 68.1537 320.705 67.782C321.235 66.9084 322.389 66.1206 324.48 66.4872V59.4672H321.414V63.57C320.157 63.9403 319.055 64.7131 318.278 65.7698C317.502 66.8266 317.094 68.1089 317.117 69.42C317.117 73.9596 321.188 75.0126 322.935 75.0126C324.269 75.0438 328.809 74.724 328.746 69.2406Z" fill="#1FAB89"/>
<path d="M321.391 58.0475H324.503V55.1381H321.391V58.0475Z" fill="#1FAB89"/>
<path d="M345.758 65.0909C345.769 64.9585 345.769 64.8255 345.758 64.6931C345.758 64.4123 345.758 64.0301 345.758 63.5387C345.758 63.2891 345.758 63.0005 345.719 62.6885C345.68 62.3765 345.633 62.0333 345.579 61.6745C345.524 61.3157 345.47 60.8945 345.407 60.4811L345.08 59.1551C344.5 56.8716 343.552 54.698 342.272 52.7201C340.413 49.7911 337.907 47.3272 334.947 45.518C331.987 43.7088 328.652 42.6023 325.197 42.2837C324.16 42.1921 323.118 42.1713 322.077 42.2213C321.555 42.2213 321.017 42.2213 320.517 42.3227L318.911 42.5645C316.706 42.9743 314.572 43.7021 312.577 44.7251C310.494 45.8275 308.579 47.2222 306.891 48.8669C305.162 50.6187 303.718 52.6292 302.609 54.8261C301.415 57.091 300.634 59.5498 300.3 62.0879C300.202 62.731 300.148 63.3798 300.136 64.0301C300.084 64.6814 300.071 65.3351 300.097 65.9879C300.267 70.1722 301.575 74.2309 303.88 77.7269V77.4851C302.796 80.1917 301.727 82.8515 300.682 85.4411L300.495 85.9169L300.986 85.7765L309.488 83.4365L309.285 83.3897C312.149 85.5575 315.484 87.0168 319.02 87.6485C320.66 87.9542 322.331 88.0564 323.996 87.9527C324.799 87.9408 325.6 87.8651 326.391 87.7265L327.553 87.5471C327.935 87.4769 328.333 87.3599 328.676 87.2741C333.915 85.9465 338.511 82.7971 341.64 78.3899C342.807 76.7664 343.744 74.9894 344.424 73.1093C344.573 72.6959 344.713 72.3293 344.846 71.9237C344.978 71.5181 345.048 71.1437 345.134 70.7927C345.22 70.4417 345.314 70.0829 345.392 69.7553C345.47 69.4277 345.493 69.1079 345.54 68.8037C345.61 68.2031 345.719 67.6727 345.743 67.2437C345.766 66.8147 345.743 66.4013 345.743 66.0737C345.743 65.7461 345.743 65.5433 345.743 65.3639C345.743 65.1845 345.743 65.1221 345.743 65.1221C345.731 65.2023 345.731 65.2838 345.743 65.3639C345.743 65.5433 345.743 65.7773 345.688 66.0737C345.633 66.3701 345.641 66.7835 345.61 67.2359C345.579 67.6883 345.462 68.2187 345.368 68.7959C344.624 73.1129 342.643 77.121 339.664 80.3334C336.686 83.5457 332.839 85.8242 328.59 86.8919C328.224 86.9777 327.857 87.0869 327.483 87.1571L326.336 87.3287C325.563 87.4579 324.78 87.5283 323.996 87.5393C322.362 87.6255 320.723 87.5182 319.113 87.2195C315.661 86.5842 312.404 85.1497 309.605 83.0309L309.512 82.9529H309.395L300.885 85.2929L301.181 85.6283L304.387 77.6801L304.434 77.5553L304.364 77.4383C302.828 75.1145 301.738 72.525 301.15 69.8021C300.881 68.5389 300.719 67.2551 300.666 65.9645C300.64 65.3273 300.653 64.6891 300.705 64.0535C300.71 63.4187 300.762 62.7852 300.861 62.1581C301.161 59.6795 301.898 57.2736 303.038 55.0523C304.122 52.9053 305.529 50.9376 307.211 49.2179C308.863 47.6033 310.738 46.2347 312.78 45.1541C314.731 44.1394 316.82 43.4167 318.981 43.0091L320.541 42.7673C321.063 42.6893 321.586 42.6971 322.101 42.6581C323.118 42.6098 324.136 42.628 325.151 42.7127C328.548 43.0102 331.834 44.0779 334.757 45.8349C337.68 47.5919 340.165 49.9919 342.022 52.8527C343.309 54.7961 344.273 56.9349 344.877 59.1863L345.228 60.4967C345.298 60.9101 345.36 61.2767 345.423 61.6667C345.485 62.0567 345.532 62.3687 345.587 62.6807C345.641 62.9927 345.626 63.2735 345.649 63.5231C345.649 64.0067 345.711 64.3889 345.735 64.6697C345.72 64.8105 345.728 64.9527 345.758 65.0909Z" fill="#263238"/>
<path d="M113.154 157.076H158.199C158.199 157.076 158.199 119.254 197.504 118.583C217.916 118.225 228.501 131.602 232.806 141.843C237.798 153.738 236.285 167.294 229.593 178.331C221.957 190.928 205.499 203.588 175.141 198.237L174.852 298.6H219.398V239.101C219.398 239.101 281.868 222.955 281.868 154.081C281.868 88.2102 228.602 73.983 199.968 73.0626C184.041 72.5556 178.269 71.8692 158.566 74.6694C133.458 78.2574 112.624 107.414 113.154 157.076Z" fill="#3BB598"/>
<path d="M219.936 319.519H174.728V361.741H219.936V319.519Z" fill="#3BB598"/>
<path opacity="0.1" d="M219.936 319.519H174.728V361.741H219.936V319.519Z" fill="black"/>
<path opacity="0.1" d="M113.154 157.076H158.199C158.199 157.076 158.199 119.254 197.504 118.583C217.916 118.225 228.501 131.602 232.806 141.843C237.798 153.738 236.285 167.294 229.593 178.331C221.957 190.928 205.499 203.588 175.141 198.237L174.852 298.6H219.398V239.101C219.398 239.101 281.868 222.955 281.868 154.081C281.868 88.2102 228.602 73.983 199.968 73.0626C184.041 72.5556 178.269 71.8692 158.566 74.6694C133.458 78.2574 112.624 107.414 113.154 157.076Z" fill="black"/>
<path d="M94.4891 157.076H139.542C139.542 157.076 139.542 119.254 178.846 118.583C199.259 118.225 209.843 131.602 214.141 141.843C219.141 153.738 217.628 167.294 210.935 178.331C203.299 190.928 186.553 202.379 156.195 197.051V298.599H200.741V239.101C200.741 239.101 263.211 222.955 263.211 154.081C263.211 88.2101 204.134 72.9143 178.854 72.9143C159.518 72.9377 93.6389 77.6099 94.4891 157.076Z" fill="#3BB598"/>
<path opacity="0.3" d="M94.4891 157.076H139.542C139.542 157.076 139.542 119.254 178.846 118.583C199.259 118.225 209.843 131.602 214.141 141.843C219.141 153.738 217.628 167.294 210.935 178.331C203.299 190.928 186.553 202.379 156.195 197.051V298.6H200.741V239.101C200.741 239.101 263.211 222.955 263.211 154.081C263.211 88.2101 204.134 72.9143 178.854 72.9143C159.518 72.9377 93.6389 77.6099 94.4891 157.076Z" fill="black"/>
<path d="M201.279 319.519H156.07V361.741H201.279V319.519Z" fill="#3BB598"/>
<path opacity="0.3" d="M201.279 319.519H156.07V361.741H201.279V319.519Z" fill="black"/>
<path d="M183.932 118.786C183.709 118.805 183.484 118.805 183.261 118.786C182.816 118.786 182.177 118.638 181.342 118.63C178.983 118.514 176.617 118.613 174.275 118.927C170.803 119.366 167.386 120.169 164.081 121.321C162.132 122.002 160.235 122.821 158.402 123.77C156.422 124.76 154.557 125.966 152.841 127.366C151.137 128.779 149.61 130.392 148.294 132.171C147.045 133.816 145.907 135.54 144.885 137.335C143.179 140.39 141.826 143.63 140.852 146.991C140.192 149.259 139.738 151.583 139.495 153.933C139.402 154.76 139.378 155.415 139.355 155.852C139.355 156.077 139.334 156.301 139.292 156.523C139.272 156.299 139.272 156.075 139.292 155.852C139.292 155.407 139.292 154.752 139.363 153.917C139.542 151.542 139.957 149.19 140.603 146.897C141.541 143.497 142.876 140.219 144.581 137.132C145.605 135.318 146.749 133.575 148.005 131.914C149.333 130.106 150.879 128.468 152.607 127.039C154.343 125.619 156.232 124.398 158.239 123.396C160.083 122.429 161.993 121.595 163.956 120.9C167.291 119.752 170.741 118.967 174.244 118.56C176.602 118.27 178.982 118.215 181.35 118.396C181.994 118.437 182.634 118.515 183.269 118.63C183.493 118.667 183.715 118.719 183.932 118.786Z" fill="#263238"/>
<path d="M251.807 110.76C251.807 110.76 251.753 110.705 251.659 110.588C251.565 110.471 251.425 110.269 251.269 110.042L249.779 107.936C249.459 107.484 249.116 106.961 248.711 106.423L247.307 104.715L245.7 102.742C245.115 102.055 244.428 101.392 243.742 100.667C243.056 99.9414 242.354 99.1692 241.558 98.4282C240.762 97.6872 239.912 96.9306 239.039 96.1506C238.602 95.7606 238.173 95.3706 237.705 94.9572L236.254 93.8106C235.263 93.0306 234.281 92.2506 233.212 91.4706C228.554 88.1382 223.614 85.2202 218.447 82.7502L214.336 80.8938L210.257 79.3338C208.923 78.78 207.566 78.39 206.255 77.9532C204.945 77.5164 203.666 77.0718 202.355 76.7676L198.627 75.7926C197.418 75.4728 196.217 75.2778 195.07 75.0126C193.923 74.7474 192.816 74.5134 191.732 74.3808L188.612 73.9284C186.638 73.593 184.829 73.5228 183.253 73.3668C182.473 73.3044 181.693 73.2186 181.046 73.1874L179.189 73.1406L176.615 73.0548H175.944H175.718C175.793 73.0431 175.87 73.0431 175.944 73.0548H176.615H179.189H181.053C181.732 73.0548 182.473 73.1484 183.269 73.203C184.829 73.3356 186.669 73.3902 188.643 73.71L191.763 74.1312C192.847 74.256 193.955 74.5368 195.109 74.7474C196.263 74.958 197.449 75.1764 198.689 75.5274L202.433 76.4946C203.728 76.791 205.007 77.2746 206.333 77.6724C207.659 78.0702 209.009 78.4524 210.342 79.0452L214.445 80.6052L218.579 82.4694C223.774 84.945 228.734 87.8845 233.399 91.2522C234.476 92.0322 235.458 92.8668 236.449 93.639L237.9 94.692C238.368 95.082 238.797 95.472 239.234 95.8932L241.745 98.2332C242.525 99.0132 243.227 99.7932 243.921 100.503C244.616 101.213 245.279 101.907 245.864 102.601L247.424 104.59L248.812 106.322C249.21 106.868 249.545 107.398 249.857 107.882C250.466 108.794 250.941 109.512 251.277 110.027L251.643 110.596C251.705 110.643 251.76 110.699 251.807 110.76Z" fill="#263238"/>
<path d="M247.111 207.48C247.019 207.649 246.906 207.806 246.776 207.948L245.7 209.219C245.255 209.789 244.693 210.467 243.999 211.224C243.305 211.981 242.564 212.87 241.659 213.79C240.754 214.711 239.787 215.74 238.687 216.778C237.588 217.815 236.394 218.907 235.123 220.046C229.546 224.913 223.433 229.129 216.902 232.612C215.389 233.392 213.961 234.172 212.581 234.772C211.2 235.373 209.913 235.989 208.728 236.488C207.542 236.987 206.45 237.401 205.498 237.767C204.547 238.134 203.712 238.43 203.026 238.649L201.466 239.156C201.285 239.228 201.097 239.28 200.904 239.312C201.072 239.216 201.25 239.137 201.435 239.078L202.995 238.501C203.673 238.259 204.492 237.947 205.436 237.557C206.38 237.167 207.472 236.777 208.642 236.223C209.812 235.669 211.107 235.147 212.456 234.468C213.805 233.789 215.249 233.072 216.754 232.284C219.726 230.646 222.931 228.727 226.168 226.512C229.405 224.297 232.315 221.965 234.904 219.765C236.176 218.642 237.393 217.589 238.477 216.528C239.561 215.467 240.575 214.508 241.472 213.587C242.369 212.667 243.157 211.817 243.859 211.068C244.561 210.319 245.138 209.664 245.606 209.118L246.698 207.878C246.825 207.734 246.963 207.601 247.111 207.48Z" fill="#263238"/>
<path d="M199.953 295.058C199.836 295.058 199.742 282.532 199.742 267.08C199.742 251.628 199.836 239.093 199.953 239.093C200.07 239.093 200.156 251.62 200.156 267.08C200.156 282.539 200.062 295.058 199.953 295.058Z" fill="#263238"/>
<path d="M201.669 358.878C201.552 358.878 201.466 350.087 201.466 339.245C201.466 328.403 201.552 319.605 201.669 319.605C201.786 319.605 201.872 328.396 201.872 339.245C201.872 350.095 201.778 358.878 201.669 358.878Z" fill="#263238"/>
<path d="M246.012 151.094C245.232 152.654 248.141 153.933 249.818 154.44C251.529 154.86 253.3 154.981 255.052 154.799C257.392 154.674 259.787 154.456 261.807 153.301C263.576 152.205 264.99 150.62 265.879 148.738C266.754 146.862 267.447 144.906 267.946 142.896C267.946 142.896 249.514 144.097 246.012 151.094Z" fill="#1FAB89"/>
<g opacity="0.4">
<path d="M246.012 151.094C245.232 152.654 248.141 153.933 249.818 154.44C251.529 154.86 253.3 154.981 255.052 154.799C257.392 154.674 259.787 154.456 261.807 153.301C263.576 152.205 264.99 150.62 265.879 148.738C266.754 146.862 267.447 144.906 267.946 142.896C267.946 142.896 249.514 144.097 246.012 151.094Z" fill="black"/>
</g>
<path d="M298.069 146.102C301.108 148.257 304.749 149.398 308.475 149.362C310.26 149.462 312.021 148.907 313.428 147.802C314.028 147.248 314.481 146.546 315.097 146.016C315.518 145.657 316.009 145.384 316.407 145.002C316.617 144.821 316.779 144.591 316.878 144.333C316.978 144.074 317.011 143.795 316.977 143.52C316.823 142.843 316.443 142.237 315.9 141.804C313.786 140.603 311.259 140.65 308.826 140.704C306.39 140.81 303.984 141.28 301.689 142.1C299.801 142.74 297.828 143.66 296.868 145.376" fill="#1FAB89"/>
<g opacity="0.4">
<path d="M316.977 143.52C316.701 142.862 316.215 142.314 315.596 141.96C313.482 140.759 311.259 140.65 308.826 140.704C306.39 140.81 303.984 141.28 301.689 142.1C299.801 142.74 297.828 143.66 296.868 145.376L298.069 146.102C301.108 148.257 304.749 149.398 308.475 149.362C310.26 149.462 312.021 148.907 313.428 147.802C314.028 147.248 314.481 146.546 315.097 146.016C315.518 145.657 316.009 145.384 316.407 145.002C316.617 144.821 316.779 144.591 316.878 144.333C316.978 144.074 317.011 143.795 316.977 143.52Z" fill="black"/>
</g>
<path d="M262.08 174.096L300.963 174.611C301.042 174.611 301.12 174.592 301.191 174.556C301.262 174.52 301.323 174.469 301.37 174.405C301.417 174.341 301.448 174.267 301.462 174.189C301.475 174.111 301.47 174.031 301.447 173.956L296.884 159.728C296.884 159.728 297.555 152.615 298.483 144.066C299.895 131.079 301.774 114.754 301.798 114.8C299.138 107.344 283.444 106.08 283.444 106.08L265.559 107.141L264.935 106.088L259.787 108.482C258.664 109.005 257.584 109.615 256.558 110.308C253.157 112.577 244.967 117.796 243.469 123.607C240.014 137.062 245.864 152.077 245.864 152.077L249.624 149.136C250.571 148.406 251.566 147.742 252.603 147.147L260.138 167.341C259.69 167.624 259.31 168.003 259.026 168.451C258.743 168.899 258.563 169.404 258.5 169.931C258.438 171.569 259.28 173.534 262.08 174.096Z" fill="#1FAB89"/>
<g opacity="0.3">
<path d="M278.764 150.29C279.997 143.66 279.349 136.843 278.686 130.135C276.533 135.595 276.611 141.835 274.326 147.248C274.046 147.82 273.841 148.426 273.718 149.05C273.658 149.364 273.674 149.687 273.763 149.993C273.853 150.3 274.013 150.581 274.232 150.813C274.856 151.382 275.792 151.07 276.619 150.977C277.359 150.836 278.08 150.605 278.764 150.29Z" fill="black"/>
</g>
<g opacity="0.4">
<path d="M264.42 165.641C267.54 166.725 270.863 164.705 274.162 164.346C276.346 164.112 278.53 164.611 280.699 164.962C285.083 165.671 289.544 165.782 293.959 165.29C294.636 165.252 295.299 165.08 295.909 164.783C296.224 164.568 296.482 164.279 296.66 163.942C296.838 163.605 296.931 163.23 296.931 162.848C289.583 162.068 282.243 161.647 274.896 160.891C273.067 160.578 271.193 160.639 269.389 161.07C267.174 161.756 265.489 163.496 263.929 165.22" fill="black"/>
</g>
<path d="M315.853 140.962C312.679 133.809 301.486 114.028 301.486 114.028L292.82 124.894L294.84 146.227C294.84 146.227 299.419 141.118 312.218 141.016C313.149 141.053 314.059 141.298 314.882 141.733C315.705 142.167 316.421 142.781 316.976 143.528L315.853 140.962Z" fill="#1FAB89"/>
<path d="M263.82 137.179C263.201 135.662 262.711 134.097 262.353 132.499C261.869 130.942 261.514 129.348 261.292 127.733C261.902 129.252 262.389 130.817 262.751 132.413C263.236 133.97 263.593 135.564 263.82 137.179Z" fill="#263238"/>
<path d="M292.165 123.451C292.447 123.65 292.708 123.877 292.945 124.129C293.634 124.795 294.28 125.503 294.879 126.251C296.896 128.716 298.314 131.616 299.021 134.722C299.388 136.438 299.47 138.204 299.263 139.948C299.068 141.547 298.763 142.951 298.561 144.136C298.358 145.322 298.233 146.289 298.171 146.96C298.169 147.308 298.132 147.656 298.061 147.997C298.006 147.649 297.99 147.296 298.015 146.944C298.049 145.988 298.137 145.035 298.28 144.089C298.444 142.896 298.717 141.476 298.896 139.909C299.076 138.204 298.984 136.482 298.623 134.807C297.924 131.76 296.569 128.901 294.653 126.43C293.225 124.511 292.102 123.513 292.165 123.451Z" fill="#263238"/>
<path d="M284.224 172.38C283.953 172.501 283.667 172.585 283.374 172.63C283.041 172.718 282.702 172.783 282.36 172.825C281.962 172.879 281.51 172.965 281.003 172.988C279.814 173.097 278.619 173.097 277.43 172.988C275.976 172.839 274.54 172.552 273.14 172.13C271.748 171.683 270.4 171.106 269.116 170.407C268.074 169.825 267.085 169.155 266.159 168.402C265.754 168.09 265.426 167.762 265.13 167.489C264.874 167.259 264.632 167.014 264.404 166.756C264.188 166.555 264.001 166.324 263.851 166.07C263.905 166.015 264.74 166.951 266.339 168.176C267.273 168.887 268.261 169.523 269.295 170.079C270.565 170.746 271.891 171.302 273.257 171.74C274.633 172.155 276.042 172.447 277.469 172.614C278.635 172.739 279.808 172.776 280.979 172.723C282.984 172.614 284.209 172.318 284.224 172.38Z" fill="#263238"/>
<path d="M296.229 167.95C296.412 168.302 296.516 168.691 296.533 169.088C296.657 170.039 296.585 171.005 296.322 171.928C296.054 172.871 295.511 173.713 294.762 174.346C294.193 174.821 293.756 174.97 293.733 174.931C293.709 174.892 294.076 174.634 294.567 174.151C295.198 173.493 295.656 172.689 295.901 171.811C296.525 169.751 296.08 167.957 296.229 167.95Z" fill="#263238"/>
<path d="M294.115 170.695C294.284 171.497 294.216 172.332 293.92 173.096C293.623 173.86 293.111 174.522 292.445 175.001C292.36 174.915 293.085 174.143 293.537 172.949C293.99 171.756 293.998 170.703 294.115 170.695Z" fill="#263238"/>
<path d="M287.157 145.033C286.744 145.732 286.28 146.399 285.769 147.03C285.366 147.734 284.909 148.407 284.404 149.042C284.554 148.219 284.908 147.447 285.433 146.796C285.849 146.072 286.442 145.465 287.157 145.033Z" fill="#263238"/>
<path d="M260.466 126.142C259.871 125.793 259.296 125.412 258.742 125.003C255.968 123.18 252.82 122.005 249.53 121.563C248.841 121.513 248.156 121.422 247.479 121.29C248.169 121.195 248.87 121.195 249.561 121.29C252.94 121.578 256.177 122.784 258.921 124.777C259.497 125.158 260.017 125.617 260.466 126.142Z" fill="#263238"/>
<path d="M301.486 113.771C300.09 114.895 298.785 116.129 297.586 117.46C296.481 118.881 295.492 120.389 294.629 121.969C294.722 121.437 294.904 120.926 295.168 120.455C295.732 119.286 296.44 118.191 297.274 117.195C298.11 116.201 299.069 115.318 300.128 114.566C300.532 114.225 300.991 113.956 301.486 113.771Z" fill="#263238"/>
<path d="M285.433 107.344C285.504 107.456 285.562 107.576 285.605 107.702C285.757 108.056 285.88 108.421 285.972 108.794C286.301 110.184 286.301 111.632 285.972 113.022C285.486 115.097 284.375 116.973 282.789 118.396C280.787 120.092 278.237 121.001 275.613 120.955C272.988 120.964 270.429 120.124 268.32 118.56C266.64 117.277 265.276 115.625 264.334 113.732C263.7 112.464 263.253 111.111 263.008 109.715C262.937 109.339 262.89 108.958 262.868 108.576C262.846 108.442 262.846 108.305 262.868 108.17C262.868 108.17 262.954 108.716 263.172 109.684C263.476 111.04 263.955 112.351 264.6 113.584C265.551 115.42 266.903 117.019 268.554 118.264C270.587 119.769 273.045 120.588 275.574 120.604C278.103 120.65 280.564 119.786 282.508 118.17C284.041 116.799 285.127 115 285.628 113.006C285.975 111.66 286.023 110.254 285.769 108.888C285.621 107.858 285.387 107.359 285.433 107.344Z" fill="#263238"/>
<g opacity="0.3">
<path d="M288.163 146.414C288.163 146.024 288.101 145.564 287.758 145.369C287.649 145.314 287.529 145.285 287.407 145.285C287.285 145.285 287.165 145.314 287.056 145.369C286.838 145.486 286.644 145.645 286.486 145.837C285.569 146.791 284.86 147.925 284.404 149.167L288.226 148.832C288.202 148.044 288.187 147.217 288.163 146.414Z" fill="black"/>
</g>
<g opacity="0.3">
<path d="M300.854 138.372C300.47 136.185 299.511 134.139 298.077 132.444C299.731 137.842 299.177 140.891 298.249 144.589L298.452 144.074C299.52 141.913 301.143 140.556 300.854 138.372Z" fill="black"/>
</g>
<path d="M293.218 319.691L290.885 354.674L275.675 354.494L273.281 318.123L293.218 319.691Z" fill="#FFBE9D"/>
<path d="M291.314 350.072V351.086C291.314 351.086 308.474 357.981 308.638 361.226L274.56 361.038L275.09 349.705C280.168 352.084 285.48 352.38 291.314 350.072Z" fill="#1FAB89"/>
<path d="M278.546 353.34C278.223 353.438 277.946 353.65 277.768 353.937C277.59 354.224 277.523 354.567 277.579 354.9C277.662 355.233 277.871 355.52 278.162 355.702C278.453 355.884 278.803 355.946 279.139 355.875C279.486 355.771 279.782 355.542 279.97 355.232C280.157 354.922 280.222 354.553 280.153 354.198C280.029 353.861 279.779 353.586 279.456 353.43C279.133 353.274 278.762 353.25 278.421 353.363" fill="white"/>
<path d="M274.56 361.039L274.685 358.316L307.32 359.502C307.32 359.502 308.833 360.173 308.654 361.234L274.56 361.039Z" fill="#263238"/>
<path d="M291.439 351.179C291.439 351.343 290.597 351.413 289.778 351.959C288.959 352.505 288.514 353.184 288.366 353.122C288.218 353.059 288.467 352.092 289.474 351.468C290.48 350.844 291.478 351 291.439 351.179Z" fill="#263238"/>
<path d="M295.004 352.677C295.043 352.841 294.318 353.114 293.748 353.816C293.179 354.518 293.015 355.259 292.843 355.251C292.672 355.243 292.578 354.299 293.304 353.449C294.029 352.599 294.996 352.56 295.004 352.677Z" fill="#263238"/>
<path d="M297.008 356.967C296.852 356.967 296.626 356.187 297.063 355.259C297.5 354.331 298.272 353.995 298.342 354.128C298.412 354.26 297.929 354.752 297.562 355.508C297.196 356.265 297.18 356.951 297.008 356.967Z" fill="#263238"/>
<path d="M290.441 63.8429C291.322 61.6589 290.254 59.0147 288.358 57.6029C286.361 56.288 283.925 55.8143 281.58 56.2848C279.267 56.7698 277.027 57.5565 274.919 58.6248C273.938 57.636 272.702 56.9392 271.349 56.6122C269.995 56.2852 268.578 56.3408 267.254 56.7728C265.93 57.2049 264.753 57.9964 263.853 59.0589C262.953 60.1214 262.366 61.4132 262.158 62.7899C261.315 62.5777 260.429 62.599 259.597 62.8517C258.765 63.1045 258.018 63.579 257.435 64.2244C256.852 64.8698 256.456 65.6617 256.289 66.5152C256.122 67.3687 256.19 68.2515 256.487 69.069L267.033 72.774L278.546 93.054C280.247 94.5056 282.419 95.2886 284.655 95.2569C286.891 95.2252 289.04 94.381 290.699 92.8817C292.359 91.3825 293.417 89.3306 293.675 87.109C293.933 84.8874 293.374 82.6477 292.102 80.8079C292.747 80.2343 293.295 79.56 293.725 78.8111C294.645 78.2671 295.447 77.5456 296.086 76.6886C296.725 75.8317 297.187 74.8563 297.445 73.8191C298.467 69.3029 294.973 64.3733 290.441 63.8429Z" fill="#263238"/>
<path d="M283.46 106.08C282.805 102.781 282.352 100.519 282.36 100.542C282.368 100.565 288.6 98.124 288.148 89.4426C287.929 85.1214 286.283 78.312 284.755 72.7896C283.382 67.8132 278.741 62.3298 273.835 63.9132L258.96 71.1672C257.47 71.6508 257.213 73.0548 257.564 74.5758V75.3558L263.344 99.2706L265.785 109.957C266.305 112.151 267.628 114.071 269.494 115.338C271.359 116.606 273.631 117.129 275.863 116.805C277.081 116.634 278.252 116.215 279.303 115.575C280.355 114.934 281.264 114.086 281.975 113.082C282.687 112.077 283.185 110.938 283.441 109.734C283.696 108.53 283.702 107.287 283.46 106.08Z" fill="#FFBE9D"/>
<path d="M284.7 78.5615C284.763 78.8383 284.717 79.1285 284.571 79.3723C284.426 79.6162 284.193 79.795 283.92 79.8719C283.782 79.9104 283.638 79.9206 283.496 79.9019C283.354 79.8832 283.218 79.836 283.094 79.7632C282.971 79.6903 282.864 79.5932 282.78 79.4779C282.695 79.3625 282.634 79.2312 282.602 79.0919C282.539 78.8162 282.586 78.527 282.731 78.2844C282.876 78.0419 283.109 77.8646 283.382 77.7893C283.519 77.7496 283.663 77.7382 283.805 77.7559C283.947 77.7736 284.083 77.82 284.207 77.8922C284.33 77.9645 284.437 78.0611 284.522 78.1761C284.607 78.2912 284.667 78.4223 284.7 78.5615Z" fill="#263238"/>
<path d="M284.022 76.9002C283.912 77.0718 282.969 76.6428 281.814 76.9002C280.66 77.1576 279.927 77.9064 279.771 77.7894C279.615 77.6724 279.771 77.454 280.09 77.1108C280.519 76.6573 281.078 76.3468 281.689 76.2216C282.293 76.0914 282.922 76.1598 283.483 76.4166C283.92 76.596 284.068 76.83 284.022 76.9002Z" fill="#263238"/>
<path d="M273.375 81.12C273.437 81.3957 273.391 81.6849 273.245 81.9275C273.1 82.17 272.867 82.3473 272.595 82.4226C272.46 82.4618 272.319 82.4739 272.179 82.4582C272.04 82.4425 271.905 82.3993 271.782 82.3311C271.66 82.2629 271.552 82.1711 271.465 82.0609C271.378 81.9508 271.314 81.8245 271.276 81.6894C271.214 81.4126 271.26 81.1224 271.405 80.8786C271.55 80.6347 271.783 80.4559 272.056 80.379C272.192 80.3399 272.333 80.3281 272.473 80.3443C272.613 80.3605 272.748 80.4044 272.871 80.4734C272.993 80.5423 273.101 80.635 273.188 80.746C273.274 80.857 273.338 80.9842 273.375 81.12Z" fill="#263238"/>
<path d="M272.805 79.6536C272.704 79.8252 271.752 79.3884 270.598 79.6536C269.443 79.9188 268.71 80.6519 268.554 80.5427C268.398 80.4335 268.554 80.2073 268.874 79.8563C269.305 79.4069 269.863 79.0995 270.473 78.9749C271.076 78.8468 271.704 78.9123 272.267 79.1621C272.68 79.3493 272.86 79.56 272.805 79.6536Z" fill="#263238"/>
<path d="M278.678 86.9856C279.25 86.6701 279.858 86.4239 280.488 86.2524C280.777 86.1588 281.05 86.0418 281.057 85.8312C281.017 85.5209 280.883 85.2301 280.675 84.9966L279.326 82.9218C277.438 79.9656 276.003 77.5164 276.12 77.4618C276.237 77.4072 277.867 79.7238 279.755 82.68L281.073 84.7704C281.332 85.0903 281.472 85.4898 281.471 85.9014C281.447 86.0136 281.4 86.1193 281.331 86.2109C281.262 86.3026 281.174 86.378 281.073 86.4318C280.92 86.5125 280.758 86.5729 280.589 86.6112C279.972 86.8224 279.329 86.9484 278.678 86.9856Z" fill="#263238"/>
<path d="M282.36 100.542C278.415 101.434 274.3 101.212 270.473 99.9023C270.473 99.9023 274.56 105.238 282.805 102.687L282.36 100.542Z" fill="#EB996E"/>
<path d="M273 78C272.922 78.3354 271.729 78.3276 270.372 78.663C269.014 78.9984 267.938 79.5054 267.72 79.2402C267.626 79.1154 267.782 78.7878 268.195 78.4602C268.745 77.9974 269.398 77.6737 270.099 77.5164C270.794 77.3515 271.517 77.3515 272.212 77.5164C272.766 77.6178 273.055 77.844 273 78Z" fill="#263238"/>
<path d="M283.577 73.2185C283.39 73.5305 282.391 73.4525 281.237 73.6787C280.083 73.9049 279.17 74.2949 278.897 74.0687C278.772 73.9517 278.897 73.6553 279.232 73.2887C279.747 72.8556 280.37 72.5699 281.034 72.4619C281.687 72.3303 282.364 72.3788 282.992 72.6023C283.468 72.8207 283.655 73.0625 283.577 73.2185Z" fill="#263238"/>
<path d="M262.634 65.5824C262.807 66.4273 263.163 67.2239 263.678 67.9155C264.194 68.6072 264.855 69.1768 265.615 69.5841C266.375 69.9914 267.216 70.2262 268.077 70.272C268.938 70.3178 269.799 70.1734 270.598 69.849C271.83 69.3498 273.109 68.4138 274.357 68.8662C275.605 69.3186 276.12 71.097 277.314 71.76C279.069 72.7428 281.214 71.0424 283.171 71.214C284.731 71.3466 285.909 72.54 287.118 73.554C288.327 74.568 289.996 75.3324 291.361 74.5992C291.049 73.2966 290.586 72.0349 289.981 70.8396C289.371 69.6362 288.362 68.6822 287.126 68.1408C286.44 67.8678 285.699 67.7742 285.043 67.4388C283.632 66.7212 283 65.0988 281.978 63.8742C281.307 63.1025 280.462 62.5018 279.512 62.122C278.563 61.7422 277.536 61.5942 276.518 61.6902C274.833 61.8618 273.234 62.712 271.534 62.6418C270.278 62.5872 269.077 62.0256 267.821 62.049C265.38 62.049 263.547 64.233 262.189 66.2688" fill="#263238"/>
<path d="M270.855 67.3686C269.732 67.2828 267.439 67.0488 266.682 66.2532C265.913 65.3935 264.932 64.7507 263.837 64.3893C262.742 64.028 261.571 63.9606 260.442 64.194C259.321 64.528 258.338 65.2131 257.635 66.1483C256.933 67.0835 256.55 68.2194 256.542 69.3888C255.177 69.7218 253.928 70.4172 252.926 71.4016C251.923 72.386 251.206 73.6228 250.848 74.9814C250.485 76.4036 250.473 77.8927 250.812 79.3207C251.152 80.7486 251.833 82.0727 252.798 83.1792C253.267 83.7651 253.694 84.3827 254.077 85.0278C253.548 85.6839 253.083 86.3891 252.689 87.1338C250.903 91.0806 255.746 92.5938 255.746 92.5938C255.746 95.2458 258.203 95.2302 259.771 95.2224C261.339 95.2146 262.205 99.4032 263.429 99.2394L262.189 86.3148C262.371 86.3854 262.564 86.4224 262.759 86.424C265.715 86.4786 264.943 80.8782 263.991 79.404C264.872 78.3075 265.616 77.1079 266.206 75.8316C266.742 73.8804 266.779 71.8262 266.315 69.8568C267.306 69.732 271.339 67.3998 270.855 67.3686Z" fill="#263238"/>
<path d="M262.579 87.0011C262.479 86.5904 262.276 86.212 261.989 85.901C261.703 85.59 261.342 85.3567 260.941 85.2227C260.54 85.0887 260.111 85.0586 259.695 85.1349C259.279 85.2113 258.89 85.3918 258.562 85.6595C257.782 86.3303 257.369 87.4535 257.837 89.3333C259.101 94.3565 263.882 92.0555 263.851 91.9151C263.82 91.7747 263.125 89.0759 262.579 87.0011Z" fill="#FFBE9D"/>
<path d="M261.839 90.3941C261.839 90.3941 261.768 90.4799 261.636 90.5813C261.451 90.7227 261.219 90.787 260.988 90.7607C260.411 90.6983 259.748 89.9807 259.499 89.0681C259.38 88.6417 259.356 88.1944 259.428 87.7577C259.436 87.5881 259.485 87.4229 259.571 87.2762C259.656 87.1295 259.776 87.0057 259.92 86.9153C260.014 86.8643 260.124 86.848 260.23 86.8694C260.335 86.8908 260.43 86.9484 260.497 87.0323C260.598 87.1493 260.591 87.2585 260.622 87.2663C260.653 87.2741 260.708 87.1493 260.622 86.9543C260.562 86.8387 260.466 86.7456 260.349 86.6891C260.184 86.6223 259.999 86.6223 259.834 86.6891C259.638 86.7821 259.469 86.9232 259.342 87.0991C259.215 87.275 259.135 87.4801 259.109 87.6953C259.007 88.1865 259.026 88.6949 259.163 89.1773C259.25 89.6303 259.469 90.0474 259.792 90.3763C260.116 90.7052 260.529 90.9312 260.981 91.0259C261.127 91.0319 261.274 91.0048 261.409 90.9468C261.544 90.8888 261.664 90.8012 261.761 90.6905C261.862 90.5189 261.862 90.4019 261.839 90.3941Z" fill="#EB996E"/>
<path d="M289.513 79.989C289.513 79.989 289.973 79.638 290.613 78.858C291.495 77.7341 292.037 76.3805 292.173 74.958C292.276 73.9869 292.181 73.0049 291.892 72.072C291.559 71.0018 290.941 70.0421 290.106 69.2952C289.141 68.4525 287.972 67.8768 286.716 67.625C285.46 67.3733 284.16 67.4543 282.945 67.86C282.711 67.938 282.493 68.055 282.275 68.1486C282.056 68.2422 281.861 68.3826 281.658 68.4996L281.346 68.6712V68.328C281.34 67.7238 281.115 67.1422 280.715 66.69C280.304 66.2511 279.8 65.9099 279.24 65.6916C278.181 65.2501 277.007 65.1626 275.894 65.442C273.741 65.9334 271.916 66.9162 270.192 67.119C268.841 67.3539 267.45 67.0758 266.292 66.339C265.987 66.1288 265.722 65.8645 265.512 65.559C265.388 65.3484 265.325 65.2314 265.341 65.2236C265.623 65.6088 265.969 65.9436 266.363 66.2142C267.501 66.8716 268.839 67.0959 270.13 66.846C271.028 66.677 271.906 66.4156 272.751 66.066C273.742 65.6697 274.758 65.3388 275.793 65.0754C276.369 64.9359 276.963 64.8755 277.556 64.896C278.181 64.929 278.796 65.0716 279.373 65.3172C279.969 65.572 280.502 65.9556 280.933 66.4404C281.394 66.9684 281.654 67.6426 281.666 68.3436L281.354 68.172L282.002 67.7976C282.243 67.704 282.47 67.5792 282.719 67.4934C284 67.0548 285.374 66.9631 286.701 67.2275C288.029 67.4919 289.263 68.103 290.277 68.9988C291.155 69.793 291.797 70.8129 292.134 71.9472C292.484 73.1494 292.531 74.4195 292.271 75.6444C292.011 76.8693 291.452 78.0108 290.644 78.9672C290.387 79.2604 290.096 79.5222 289.778 79.7472C289.7 79.8382 289.611 79.9194 289.513 79.989Z" fill="#455A64"/>
<path d="M288.499 62.3532C287.987 62.0932 287.44 61.9068 286.876 61.7994C286.231 61.7112 285.575 61.7726 284.957 61.9788C284.158 62.2234 283.463 62.7286 282.984 63.414L282.789 63.687L282.672 63.375C282.265 62.4162 281.609 61.5833 280.773 60.9622C279.936 60.3411 278.95 59.9543 277.914 59.8416C276.287 59.7804 274.685 60.2454 273.343 61.1676C272.201 61.9125 270.985 62.5397 269.716 63.0396C268.841 63.3706 267.899 63.483 266.971 63.3672C266.723 63.3215 266.48 63.2536 266.245 63.1644C266.089 63.0942 266.003 63.0552 266.011 63.0396C266.019 63.024 266.362 63.141 266.994 63.2034C267.891 63.2595 268.79 63.1128 269.623 62.7744C270.856 62.2366 272.038 61.5892 273.156 60.84C273.846 60.4114 274.578 60.0533 275.34 59.7714C276.178 59.4659 277.073 59.3513 277.961 59.436C279.067 59.5568 280.12 59.9753 281.007 60.6469C281.894 61.3186 282.583 62.2183 283 63.2502H282.695C283.232 62.5172 283.998 61.9846 284.872 61.737C285.536 61.5445 286.235 61.5098 286.915 61.6356C287.346 61.7173 287.758 61.8758 288.132 62.1036C288.265 62.1689 288.389 62.253 288.499 62.3532Z" fill="#455A64"/>
<path d="M278.226 89.2943C278.044 89.142 277.832 89.0299 277.603 88.9654C277.374 88.9008 277.135 88.8854 276.9 88.9199C276.625 88.9786 276.366 89.0943 276.139 89.2595C275.912 89.4248 275.722 89.636 275.582 89.8793C275.582 89.8793 275.543 89.9183 275.535 89.9417C275.428 90.1199 275.378 90.3271 275.395 90.5345C275.429 90.7605 275.517 90.9746 275.653 91.1582C275.789 91.3418 275.968 91.4892 276.175 91.5875C276.504 91.7547 276.878 91.8159 277.243 91.7628C277.609 91.7098 277.95 91.545 278.218 91.2911C278.473 91.0217 278.616 90.6652 278.617 90.2943C278.619 89.9233 278.479 89.5657 278.226 89.2943Z" fill="#1FAB89"/>
<path d="M278.616 91.7201C278.554 91.7201 278.483 91.4861 278.273 91.1663C278.019 90.7376 277.64 90.397 277.187 90.1906C276.733 89.9841 276.228 89.9218 275.738 90.0119C275.356 90.0665 275.122 90.1757 275.098 90.1211C275.075 90.0665 275.254 89.8793 275.675 89.7311C276.227 89.5537 276.824 89.5871 277.352 89.8247C277.885 90.062 278.307 90.4948 278.53 91.0337C278.694 91.4393 278.671 91.7123 278.616 91.7201Z" fill="#263238"/>
<path d="M262.696 92.6874C262.696 92.6874 262.923 93.0774 262.626 93.6702C262.459 94.0249 262.163 94.3034 261.799 94.4502C261.572 94.5315 261.329 94.559 261.09 94.5306C260.85 94.5022 260.621 94.4186 260.419 94.2864C260.214 94.1616 260.04 93.9911 259.911 93.7881C259.783 93.5852 259.703 93.3553 259.678 93.1164C259.654 92.7311 259.768 92.3499 259.998 92.04C260.403 91.5252 260.856 91.5096 260.856 91.5564C260.856 91.6032 260.512 91.7358 260.239 92.2038C260.081 92.466 260.015 92.7735 260.052 93.0774C260.081 93.2554 260.149 93.425 260.25 93.5744C260.351 93.7239 260.483 93.8497 260.637 93.9432C260.79 94.0406 260.961 94.1048 261.139 94.1317C261.318 94.1586 261.5 94.1475 261.675 94.0992C261.963 93.9961 262.211 93.8051 262.384 93.5532C262.689 93.0696 262.634 92.6874 262.696 92.6874Z" fill="#1FAB89"/>
<path d="M260.068 92.3832C260.107 92.3832 260.068 92.6484 259.701 92.82C259.521 92.8948 259.323 92.9166 259.131 92.8826C258.939 92.8487 258.761 92.7604 258.617 92.6284C258.474 92.4963 258.371 92.3259 258.321 92.1374C258.271 91.9488 258.276 91.7499 258.336 91.5642C258.412 91.3533 258.558 91.1745 258.749 91.0572C259.069 90.8622 259.311 90.9402 259.303 90.987C259.295 91.0338 259.116 91.0884 258.921 91.2834C258.825 91.4033 258.767 91.5488 258.753 91.7017C258.739 91.8547 258.771 92.0082 258.845 92.1432C258.918 92.2781 259.029 92.3884 259.165 92.4602C259.301 92.5321 259.455 92.5622 259.607 92.547C259.873 92.4924 260.013 92.352 260.068 92.3832Z" fill="#1FAB89"/>
<path d="M268.64 161.655C268.64 161.655 287.953 162.778 299.372 162.88C308.209 162.965 312.156 160.618 313.919 154.931C315.401 150.166 312.219 141.016 312.219 141.016C306.236 141.016 302.547 141.874 298.701 143.676L299.723 147.857L268.585 150.54L268.64 161.655Z" fill="#FFBE9D"/>
<path d="M306.212 152.318C305.375 151.229 304.397 150.256 303.303 149.425C302.13 148.707 300.865 148.15 299.543 147.771C299.96 147.711 300.384 147.748 300.784 147.88C301.765 148.112 302.696 148.522 303.529 149.089C304.364 149.658 305.087 150.378 305.659 151.211C306.095 151.85 306.259 152.295 306.212 152.318Z" fill="#EB996E"/>
<path d="M261.573 143.645C261.573 143.645 255.598 145.08 251.207 148.013L255.887 160.696C257.447 164.861 262.213 166.936 266.027 164.752C271.9 161.39 273.975 151.593 273.975 151.593L280.426 123.607L269.732 116.906L261.612 143.645" fill="#FFBE9D"/>
<path d="M269.693 116.906L270.13 107.702L267.735 98.3424C267.602 97.8276 267.54 97.1802 267.961 96.8682C268.17 96.708 268.428 96.6251 268.691 96.6337C268.954 96.6422 269.206 96.7416 269.404 96.9149C270.052 97.5857 273.172 105.768 273.172 105.768C273.172 105.768 277.906 102.929 278.749 102.788C279.591 102.648 280.644 105.199 280.714 105.394C280.745 105.965 280.745 106.538 280.714 107.11C280.714 107.11 283.639 107.195 283.904 107.593C284.117 108.406 284.23 109.241 284.24 110.081C284.24 110.081 285.48 110.479 285.675 111.415C285.87 112.351 286.276 113.896 285.675 114.239C285.074 114.582 283.858 115.253 283.858 115.253C283.858 115.253 283.366 120.026 283.234 120.463C283.101 120.9 280.363 123.583 280.363 123.583L269.693 116.906Z" fill="#FFBE9D"/>
<path d="M259.74 164.939C259.74 164.939 260.029 165.11 260.637 165.305C261.527 165.584 262.468 165.659 263.391 165.524C264.873 165.312 266.261 164.673 267.384 163.683C268.869 162.336 270.123 160.755 271.097 159.003C271.671 157.973 272.153 156.895 272.54 155.782C272.946 154.556 273.282 153.309 273.546 152.045C274.155 149.417 274.818 146.585 275.52 143.575C276.924 137.561 278.499 130.837 280.2 123.591V123.536H280.239C280.777 123.006 281.315 122.468 281.853 121.906C282.118 121.625 282.384 121.345 282.633 121.056C282.758 120.908 282.891 120.76 282.992 120.611C283.071 120.465 283.116 120.302 283.125 120.136C283.335 118.576 283.499 116.961 283.671 115.331V115.229L283.764 115.183L285.254 114.348C285.363 114.278 285.535 114.2 285.605 114.137C285.68 114.07 285.729 113.979 285.745 113.88C285.782 113.621 285.782 113.359 285.745 113.1C285.67 112.528 285.553 111.962 285.394 111.407C285.129 110.922 284.684 110.561 284.154 110.401L284.022 110.354V110.222C284.022 109.769 283.975 109.301 283.92 108.841C283.899 108.611 283.865 108.381 283.819 108.155C283.801 108.055 283.769 107.958 283.725 107.866C283.725 107.812 283.725 107.866 283.678 107.819C283.636 107.797 283.592 107.779 283.546 107.765C282.608 107.56 281.651 107.453 280.691 107.445H280.488V107.242C280.488 106.759 280.488 106.22 280.488 105.682C280.456 105.499 280.393 105.322 280.301 105.16C280.223 104.972 280.129 104.793 280.036 104.606C279.853 104.244 279.639 103.9 279.396 103.576C279.286 103.425 279.151 103.293 278.998 103.186C278.942 103.138 278.872 103.108 278.799 103.1C278.725 103.092 278.651 103.105 278.585 103.139C278.208 103.284 277.84 103.453 277.485 103.646C276.034 104.426 274.615 105.206 273.226 106.049L273.024 106.174L272.938 105.955C272.205 104.107 271.471 102.281 270.754 100.495C270.395 99.5981 270.044 98.7011 269.685 97.8197C269.63 97.6223 269.52 97.4444 269.368 97.3064C269.217 97.1685 269.029 97.0761 268.827 97.0397C268.641 96.9779 268.439 96.9812 268.255 97.0492C268.07 97.1173 267.915 97.246 267.813 97.4141C267.716 97.5815 267.675 97.7756 267.696 97.9679C267.696 98.1395 267.805 98.4047 267.852 98.6153C267.977 99.0677 268.094 99.5123 268.211 99.9569C268.445 100.854 268.671 101.735 268.905 102.609C269.363 104.367 269.813 106.083 270.255 107.757V107.812C270.099 111.015 269.95 114.083 269.81 117.016V117L262.704 140.119L260.7 146.554C260.466 147.28 260.286 147.849 260.161 148.247C260.037 148.645 259.959 148.816 259.959 148.816C259.959 148.816 259.998 148.613 260.107 148.231L260.598 146.523C261.051 145.018 261.698 142.841 262.517 140.065C264.202 134.48 266.596 126.508 269.49 116.899V116.938C269.625 114.015 269.763 110.947 269.904 107.734V107.788C269.459 106.111 268.999 104.395 268.539 102.648L267.837 99.9959C267.72 99.5513 267.603 99.0989 267.478 98.6543C267.411 98.4208 267.356 98.1839 267.314 97.9445C267.285 97.6738 267.343 97.4008 267.478 97.1645C267.622 96.9212 267.845 96.7342 268.11 96.6341C268.371 96.5575 268.648 96.5488 268.915 96.6089C269.181 96.6689 269.427 96.7957 269.631 96.9773C269.826 97.161 269.971 97.392 270.052 97.6481L271.12 100.324C271.846 102.118 272.571 103.943 273.312 105.784L273.024 105.682C274.42 104.855 275.824 104.029 277.306 103.256C277.68 103.061 278.066 102.886 278.46 102.734C278.583 102.682 278.718 102.664 278.85 102.679C278.984 102.698 279.111 102.746 279.225 102.82C279.413 102.954 279.578 103.117 279.716 103.303C279.977 103.644 280.204 104.01 280.395 104.395C280.496 104.59 280.59 104.777 280.675 104.972C280.786 105.179 280.86 105.403 280.894 105.635C280.894 106.189 280.894 106.704 280.894 107.195L280.699 106.985C281.701 106.991 282.701 107.107 283.678 107.328C283.746 107.351 283.811 107.38 283.873 107.414C283.959 107.46 284.03 107.531 284.076 107.617C284.137 107.743 284.181 107.877 284.209 108.014C284.256 108.264 284.287 108.498 284.318 108.74C284.365 109.216 284.396 109.684 284.419 110.152L284.279 109.964C284.598 110.058 284.895 110.215 285.151 110.427C285.407 110.639 285.617 110.901 285.769 111.197C285.94 111.789 286.065 112.394 286.143 113.006C286.197 113.319 286.197 113.638 286.143 113.95C286.109 114.139 286.01 114.31 285.862 114.434C285.734 114.519 285.602 114.598 285.465 114.668L283.983 115.44L284.084 115.292C283.905 116.922 283.741 118.521 283.522 120.104L283.476 120.409C283.458 120.532 283.406 120.648 283.327 120.744C283.213 120.915 283.085 121.076 282.945 121.228C282.68 121.524 282.415 121.813 282.165 122.093C281.627 122.655 281.089 123.193 280.543 123.724L280.597 123.63C278.881 130.868 277.29 137.592 275.863 143.606C275.153 146.609 274.474 149.44 273.85 152.061C273.584 153.334 273.24 154.589 272.821 155.821C272.419 156.945 271.924 158.033 271.339 159.073C270.342 160.848 269.059 162.445 267.54 163.8C266.383 164.796 264.959 165.431 263.445 165.625C262.503 165.752 261.544 165.655 260.645 165.344C260.416 165.26 260.195 165.159 259.982 165.04L259.74 164.939Z" fill="#EB996E"/>
<path d="M280.722 107.133C280.722 107.188 280.457 107.219 280.043 107.234C279.518 107.244 278.996 107.307 278.483 107.422C277.989 107.543 277.533 107.787 277.157 108.131C276.877 108.397 276.752 108.623 276.689 108.599C276.627 108.576 276.689 108.295 276.947 107.936C277.31 107.482 277.816 107.163 278.382 107.032C278.928 106.897 279.495 106.871 280.051 106.954C280.472 107.008 280.722 107.078 280.722 107.133Z" fill="#EB996E"/>
<path d="M278.46 107.219C278.359 107.18 278.351 106.938 278.46 106.681C278.57 106.423 278.726 106.244 278.827 106.283C278.928 106.322 278.944 106.564 278.827 106.821C278.71 107.078 278.538 107.258 278.46 107.219Z" fill="#EB996E"/>
<path d="M284.373 110.05C283.615 110.284 282.825 110.392 282.033 110.37C281.783 110.362 281.536 110.413 281.31 110.52C281.085 110.628 280.889 110.787 280.738 110.986C280.535 111.306 280.605 111.571 280.543 111.587C280.48 111.602 280.293 111.329 280.488 110.861C280.596 110.598 280.791 110.38 281.042 110.245C281.331 110.087 281.65 109.991 281.978 109.964C282.775 109.842 283.587 109.871 284.373 110.05Z" fill="#EB996E"/>
<path d="M283.858 112.858C283.967 112.858 284.029 113.435 283.998 114.145C283.967 114.855 283.85 115.417 283.741 115.417C283.631 115.417 283.561 114.832 283.592 114.122C283.624 113.412 283.741 112.85 283.858 112.858Z" fill="#EB996E"/>
<path d="M287.095 133.864L287.789 131.477C287.821 131.367 287.88 131.268 287.962 131.189C288.044 131.11 288.145 131.053 288.255 131.025C288.365 130.997 288.481 130.998 288.591 131.028C288.7 131.058 288.8 131.116 288.881 131.196L289.794 132.124L290.355 129.87C290.388 129.74 290.46 129.623 290.562 129.535C290.664 129.447 290.79 129.393 290.924 129.379C291.057 129.366 291.192 129.393 291.309 129.459C291.427 129.524 291.521 129.624 291.58 129.745L292.851 132.413L287.095 133.864Z" fill="white"/>
<path d="M292.867 133.435C291.994 133.856 291.068 134.155 290.114 134.324C289.191 134.625 288.229 134.793 287.259 134.823C289.055 134.102 290.942 133.634 292.867 133.435Z" fill="white"/>
<path d="M246.48 120.12C246.48 120.12 246.192 120.416 245.786 121.048C245.241 121.948 244.883 122.948 244.733 123.989C244.511 125.539 244.464 127.108 244.593 128.669C244.678 130.439 244.819 132.374 245.037 134.402C245.407 137.865 245.956 141.307 246.683 144.713C246.956 146.024 247.206 147.053 247.377 147.833C247.455 148.161 247.525 148.434 247.58 148.668C247.635 148.902 247.642 148.964 247.642 148.964C247.642 148.964 247.603 148.871 247.549 148.684C247.494 148.496 247.408 148.169 247.323 147.849C247.128 147.124 246.862 146.078 246.543 144.768C245.784 141.363 245.219 137.918 244.85 134.449C244.632 132.421 244.499 130.478 244.421 128.708C244.303 127.146 244.36 125.576 244.593 124.028C244.76 122.973 245.142 121.965 245.716 121.064C245.927 120.716 246.184 120.399 246.48 120.12Z" fill="white"/>
<path d="M262.899 109.496L262.72 109.59L262.205 109.84C261.76 110.05 261.113 110.362 260.341 110.791C258.328 111.914 256.372 113.137 254.483 114.457C252.252 116.017 250.279 117.437 248.836 118.466L247.127 119.675L246.652 119.995C246.598 120.038 246.541 120.074 246.48 120.104C246.524 120.052 246.577 120.007 246.636 119.972L247.088 119.629L248.765 118.373C250.193 117.32 252.158 115.853 254.389 114.325C256.282 112.999 258.251 111.785 260.286 110.69C261.066 110.276 261.721 109.98 262.181 109.785L262.704 109.567C262.86 109.512 262.86 109.489 262.899 109.496Z" fill="white"/>
<path d="M300.097 114.574C300.048 114.547 300.004 114.513 299.965 114.473L299.614 114.169C299.179 113.802 298.723 113.46 298.249 113.147C296.665 112.137 294.985 111.288 293.233 110.612C291.487 109.92 289.703 109.326 287.89 108.833C287.188 108.638 286.627 108.498 286.229 108.404L285.784 108.287C285.73 108.276 285.678 108.258 285.628 108.233H285.792L286.245 108.319C286.642 108.397 287.212 108.521 287.914 108.701C289.744 109.163 291.542 109.744 293.296 110.44C295.058 111.116 296.74 111.985 298.311 113.03C298.965 113.473 299.565 113.991 300.097 114.574Z" fill="white"/>
<path d="M263.117 174.112C263.012 174.093 262.909 174.059 262.813 174.01C262.542 173.891 262.281 173.75 262.033 173.589C261.613 173.337 261.247 173.005 260.955 172.612C260.663 172.218 260.452 171.771 260.333 171.296C260.119 170.337 260.226 169.333 260.637 168.441C260.756 168.164 260.908 167.902 261.089 167.661C261.214 167.497 261.3 167.419 261.308 167.427C261.095 167.76 260.905 168.106 260.738 168.464C260.376 169.341 260.291 170.307 260.497 171.233C260.72 172.148 261.276 172.946 262.057 173.472C262.704 173.94 263.133 174.08 263.117 174.112Z" fill="white"/>
<path d="M260.637 165.664C260.803 165.974 260.926 166.304 261.004 166.647C261.126 166.975 261.199 167.319 261.222 167.669C261.045 167.366 260.918 167.037 260.848 166.694C260.72 166.365 260.649 166.017 260.637 165.664Z" fill="white"/>
<path d="M271.183 340.548L294.973 340.431L294.544 258.18L294.318 174.509L262.08 174.096L256.285 185.016C253.914 189.406 252.402 194.208 251.831 199.165C251.441 202.956 254.28 215.28 255.263 218.4L264.132 246.527L271.183 340.548Z" fill="#263238"/>
<path d="M301.299 174.611L327.444 245.879C328.993 250.471 329.508 255.349 328.951 260.163C328.394 264.977 326.779 269.608 324.223 273.725L293.865 333.005L276.799 311.649L302.196 258.609L279.81 222.3L283.577 174.72L294.123 174.548L301.299 174.611Z" fill="#263238"/>
<path d="M292.149 198.487C292.149 198.487 292.149 198.611 292.149 198.853C292.149 199.095 292.188 199.469 292.219 199.93C292.274 200.889 292.344 202.27 292.438 204.056C292.617 207.667 292.867 212.854 293.218 219.258C293.569 225.662 293.865 233.298 294.255 241.8C294.442 246.043 294.645 250.497 294.848 255.115C294.996 257.455 294.934 259.795 294.957 262.135C294.98 264.475 294.957 266.939 294.957 269.389C294.957 288.99 295.019 306.735 295.043 319.597C295.043 326.009 295.043 331.204 295.043 334.815C295.043 336.601 295.043 337.99 295.043 338.957C295.043 339.409 295.043 339.737 295.043 340.033C295.043 340.33 295.043 340.4 295.043 340.4C295.043 340.4 295.043 340.275 295.043 340.033V338.957C295.043 337.99 295.043 336.617 294.996 334.815C294.996 331.204 294.934 326.017 294.887 319.605C294.832 306.743 294.762 288.998 294.684 269.396C294.684 266.947 294.684 264.529 294.684 262.142C294.684 259.756 294.731 257.4 294.583 255.122C294.388 250.513 294.193 246.059 294.013 241.816C293.654 233.329 293.327 225.693 293.062 219.266C292.796 212.839 292.601 207.675 292.453 204.064C292.391 202.285 292.344 200.897 292.313 199.93C292.313 199.469 292.313 199.15 292.313 198.853C292.313 198.557 292.149 198.487 292.149 198.487Z" fill="#455A64"/>
<path d="M291.548 176.015C291.64 176.266 291.695 176.528 291.712 176.795C291.798 177.294 291.892 178.019 292.001 178.924C292.204 180.726 292.422 183.23 292.547 185.999C292.672 188.768 292.679 191.279 292.64 193.097C292.64 194.002 292.586 194.743 292.547 195.25C292.555 195.513 292.523 195.776 292.453 196.03C292.355 195.055 292.321 194.076 292.352 193.097C292.352 191.279 292.266 188.783 292.141 186.014C292.016 183.245 291.845 180.757 291.712 178.994C291.601 178.005 291.547 177.01 291.548 176.015Z" fill="#455A64"/>
<path d="M286.307 177.622C286.346 177.676 285.901 177.879 285.776 178.511C285.742 178.682 285.751 178.86 285.804 179.026C285.858 179.193 285.953 179.343 286.081 179.462C286.235 179.606 286.427 179.702 286.635 179.739C286.842 179.777 287.056 179.754 287.251 179.673C287.438 179.577 287.594 179.43 287.701 179.249C287.809 179.069 287.863 178.861 287.859 178.651C287.852 178.477 287.8 178.307 287.709 178.158C287.617 178.009 287.489 177.886 287.336 177.801C287.019 177.647 286.665 177.585 286.315 177.622C286.315 177.622 286.393 177.52 286.595 177.458C286.888 177.386 287.196 177.417 287.469 177.544C287.687 177.634 287.875 177.784 288.013 177.975C288.151 178.166 288.232 178.392 288.249 178.628C288.28 178.918 288.219 179.211 288.075 179.465C287.931 179.719 287.711 179.921 287.445 180.044C287.18 180.166 286.883 180.202 286.596 180.147C286.31 180.091 286.047 179.947 285.847 179.735C285.681 179.571 285.563 179.363 285.507 179.137C285.451 178.91 285.457 178.672 285.527 178.448C285.605 178.156 285.781 177.9 286.026 177.723C286.182 177.614 286.299 177.598 286.307 177.622Z" fill="#455A64"/>
<path d="M273.827 176.21C273.942 176.456 274.013 176.719 274.037 176.99C274.163 177.69 274.187 178.404 274.108 179.111C273.995 180.164 273.691 181.187 273.211 182.13C272.63 183.303 271.77 184.315 270.706 185.078C269.643 185.841 268.408 186.331 267.111 186.506C266.073 186.661 265.015 186.621 263.991 186.389C263.298 186.238 262.631 185.989 262.01 185.648C261.775 185.537 261.559 185.389 261.37 185.211C262.232 185.599 263.131 185.899 264.053 186.108C265.163 186.339 266.308 186.337 267.416 186.103C268.525 185.868 269.573 185.407 270.494 184.747C271.416 184.088 272.19 183.244 272.769 182.27C273.348 181.296 273.719 180.212 273.858 179.088C273.95 178.13 273.939 177.165 273.827 176.21Z" fill="#455A64"/>
<path d="M304.434 183.043C303.925 183.101 303.41 183.04 302.929 182.863C301.75 182.492 300.692 181.814 299.863 180.898C299.027 179.986 298.453 178.864 298.202 177.653C298.079 177.158 298.079 176.642 298.202 176.147C298.272 176.147 298.28 176.717 298.514 177.59C298.83 178.719 299.405 179.759 300.193 180.627C300.981 181.495 301.96 182.167 303.054 182.59C303.865 182.91 304.442 182.965 304.434 183.043Z" fill="#455A64"/>
<path d="M313.724 259.872C313.333 260.318 312.866 260.691 312.343 260.972C311.796 261.32 311.199 261.583 310.573 261.752C309.785 261.961 308.954 261.939 308.178 261.69C306.816 261.176 305.648 260.249 304.84 259.038C304.468 258.583 304.161 258.079 303.927 257.54C304.348 257.942 304.73 258.384 305.066 258.858C305.894 259.957 307.013 260.802 308.295 261.3C308.95 261.475 309.633 261.514 310.304 261.416C310.974 261.318 311.618 261.085 312.195 260.73C312.688 260.415 313.198 260.129 313.724 259.872Z" fill="#455A64"/>
<path d="M307.765 264.42C306.843 263.465 306.02 262.42 305.308 261.3C304.487 260.257 303.772 259.136 303.17 257.954C304.098 258.905 304.925 259.951 305.635 261.074C306.462 262.11 307.176 263.232 307.765 264.42Z" fill="#455A64"/>
<path d="M267.797 201.24C267.688 201.279 267.415 200.834 267.173 200.234C266.932 199.633 266.83 199.126 266.932 199.079C267.033 199.033 267.314 199.485 267.548 200.086C267.782 200.686 267.899 201.24 267.797 201.24Z" fill="#FAFAFA"/>
<path d="M282.898 203.408C282.781 203.408 282.695 203.026 282.695 202.55C282.695 202.075 282.781 201.685 282.898 201.685C283.015 201.685 283.101 202.075 283.101 202.55C283.101 203.026 283.007 203.408 282.898 203.408Z" fill="#FAFAFA"/>
<path d="M276.689 211.614C276.58 211.614 276.455 211.146 276.416 210.545C276.377 209.945 276.416 209.461 276.541 209.453C276.666 209.446 276.783 209.921 276.822 210.522C276.861 211.123 276.799 211.606 276.689 211.614Z" fill="#FAFAFA"/>
<path d="M265.348 217.62C265.255 217.69 264.935 217.402 264.514 217.105C264.093 216.809 263.734 216.583 263.734 216.473C263.734 216.364 264.249 216.427 264.725 216.77C265.2 217.113 265.442 217.62 265.348 217.62Z" fill="#FAFAFA"/>
<path d="M285.34 225.272C285.246 225.209 285.34 224.874 285.605 224.492C285.87 224.11 286.112 223.891 286.205 223.954C286.299 224.016 286.205 224.359 285.94 224.734C285.675 225.108 285.433 225.334 285.34 225.272Z" fill="#FAFAFA"/>
<path d="M273 227.432C272.891 227.432 272.797 226.785 272.797 225.997C272.797 225.209 272.891 224.554 273 224.554C273.109 224.554 273.203 225.202 273.203 225.997C273.203 226.793 273.086 227.432 273 227.432Z" fill="#FAFAFA"/>
<path d="M268.96 236.184C268.897 236.27 268.492 236.09 268.055 235.77C267.618 235.451 267.275 235.123 267.376 235.03C267.478 234.936 267.852 235.123 268.289 235.443C268.726 235.763 269.03 236.09 268.96 236.184Z" fill="#FAFAFA"/>
<path d="M281.456 239.226C281.502 239.327 281.253 239.538 280.894 239.702C280.535 239.866 280.208 239.905 280.161 239.803C280.114 239.702 280.371 239.491 280.73 239.327C281.089 239.164 281.417 239.125 281.456 239.226Z" fill="#FAFAFA"/>
<path d="M273 253.5C272.907 253.547 272.501 252.946 272.103 252.151C271.706 251.355 271.464 250.669 271.565 250.591C271.667 250.513 272.072 251.144 272.462 251.94C272.852 252.736 273.071 253.414 273 253.5Z" fill="#FAFAFA"/>
<path d="M286.783 252.174C286.681 252.119 286.861 251.597 287.173 250.996C287.485 250.396 287.836 249.959 287.953 250.013C288.07 250.068 287.875 250.591 287.555 251.191C287.235 251.792 286.876 252.229 286.783 252.174Z" fill="#FAFAFA"/>
<path d="M280.738 264.256C280.621 264.256 280.636 263.624 280.512 262.891C280.387 262.158 280.2 261.573 280.309 261.518C280.418 261.464 280.792 262.018 280.917 262.829C281.042 263.64 280.847 264.28 280.738 264.256Z" fill="#FAFAFA"/>
<path d="M274.264 271.159C274.186 271.237 273.796 270.941 273.398 270.504C273 270.067 272.743 269.654 272.829 269.576C272.914 269.498 273.297 269.794 273.694 270.231C274.092 270.668 274.35 271.081 274.264 271.159Z" fill="#FAFAFA"/>
<path d="M289.973 273.78C289.895 273.702 290.184 273.281 290.621 272.836C291.057 272.392 291.463 272.103 291.549 272.181C291.635 272.259 291.338 272.688 290.909 273.125C290.48 273.562 290.059 273.858 289.973 273.78Z" fill="#FAFAFA"/>
<path d="M280.94 284.115C280.831 284.115 280.831 283.499 280.94 282.781C281.049 282.064 281.221 281.502 281.338 281.518C281.455 281.533 281.447 282.126 281.338 282.844C281.229 283.561 281.049 284.131 280.94 284.115Z" fill="#FAFAFA"/>
<path d="M274.864 289.13C274.763 289.185 274.42 288.779 274.084 288.226C273.749 287.672 273.577 287.18 273.671 287.126C273.764 287.071 274.108 287.469 274.451 288.023C274.794 288.577 274.958 289.068 274.864 289.13Z" fill="#FAFAFA"/>
<path d="M289.505 295.456C289.575 295.55 289.178 295.948 288.616 296.345C288.054 296.743 287.563 296.993 287.493 296.899C287.423 296.806 287.828 296.408 288.382 296.01C288.936 295.612 289.443 295.37 289.505 295.456Z" fill="#FAFAFA"/>
<path d="M277.306 303.67C277.196 303.631 277.306 303.007 277.407 302.227C277.508 301.447 277.446 300.807 277.563 300.791C277.68 300.776 277.883 301.431 277.805 302.266C277.727 303.1 277.407 303.716 277.306 303.67Z" fill="#FAFAFA"/>
<path d="M282.181 315.463C282.087 315.533 281.759 315.268 281.44 314.87C281.12 314.473 280.94 314.09 281.026 314.02C281.112 313.95 281.44 314.215 281.759 314.613C282.079 315.011 282.266 315.393 282.181 315.463Z" fill="#FAFAFA"/>
<path d="M276.854 323.372C276.76 323.435 276.331 322.975 275.894 322.335C275.457 321.695 275.184 321.134 275.27 321.071C275.356 321.009 275.793 321.469 276.23 322.109C276.666 322.748 276.947 323.31 276.854 323.372Z" fill="#FAFAFA"/>
<path d="M291.525 313.443C291.424 313.404 291.432 313.115 291.525 312.803C291.619 312.491 291.83 312.257 291.939 312.296C292.048 312.335 292.032 312.624 291.939 312.944C291.845 313.264 291.635 313.49 291.525 313.443Z" fill="#FAFAFA"/>
<path d="M285.051 332.28C284.95 332.225 285.145 331.672 285.301 330.977C285.457 330.283 285.511 329.698 285.628 329.69C285.745 329.683 285.862 330.314 285.698 331.063C285.535 331.812 285.145 332.342 285.051 332.28Z" fill="#FAFAFA"/>
<path d="M289.263 211.739C289.162 211.785 288.912 211.473 288.709 211.037C288.507 210.6 288.421 210.21 288.522 210.163C288.624 210.116 288.873 210.428 289.076 210.865C289.279 211.302 289.38 211.692 289.263 211.739Z" fill="#FAFAFA"/>
<path d="M278.46 187.45C278.522 187.543 277.976 187.98 277.391 188.604C276.806 189.228 276.409 189.805 276.307 189.751C276.206 189.696 276.471 188.971 277.087 188.331C277.703 187.691 278.382 187.348 278.46 187.45Z" fill="#FAFAFA"/>
<path d="M288.078 187.2C287.961 187.2 287.781 186.755 287.508 186.225C287.235 185.695 286.986 185.258 287.071 185.18C287.157 185.102 287.578 185.445 287.851 186.038C288.124 186.631 288.179 187.138 288.078 187.2Z" fill="#FAFAFA"/>
<path d="M258.047 195.086C257.946 195.039 258.047 194.524 258.289 193.931C258.531 193.339 258.796 192.878 258.905 192.925C259.015 192.972 258.905 193.479 258.664 194.08C258.422 194.68 258.18 195.125 258.047 195.086Z" fill="#FAFAFA"/>
<path d="M259.022 206.864C258.944 206.95 258.5 206.7 258.024 206.302C257.548 205.904 257.244 205.522 257.291 205.429C257.338 205.335 257.813 205.592 258.289 205.99C258.765 206.388 259.093 206.778 259.022 206.864Z" fill="#FAFAFA"/>
<path d="M278.725 178.097C278.624 178.097 278.405 177.848 278.249 177.45C278.093 177.052 278.047 176.67 278.148 176.67C278.249 176.67 278.468 176.92 278.624 177.317C278.78 177.715 278.827 178.058 278.725 178.097Z" fill="#FAFAFA"/>
<path d="M297.594 183.854C297.484 183.854 297.492 183.362 297.594 182.809C297.695 182.255 297.898 181.818 298.007 181.841C298.116 181.865 298.108 182.341 298.007 182.894C297.906 183.448 297.703 183.877 297.594 183.854Z" fill="#FAFAFA"/>
<path d="M302.024 192.769C301.923 192.722 302.063 192.145 302.344 191.467C302.625 190.788 302.929 190.281 303.03 190.32C303.132 190.359 303.03 190.944 302.718 191.623C302.406 192.301 302.133 192.808 302.024 192.769Z" fill="#FAFAFA"/>
<path d="M298.865 199.961C298.763 200.008 298.389 199.469 298.03 198.76C297.671 198.05 297.469 197.418 297.57 197.371C297.671 197.324 298.038 197.863 298.397 198.572C298.756 199.282 298.966 199.906 298.865 199.961Z" fill="#FAFAFA"/>
<path d="M305.62 207.152C305.519 207.113 305.62 206.661 305.792 206.146C305.963 205.631 306.236 205.241 306.345 205.28C306.455 205.319 306.345 205.772 306.174 206.287C306.002 206.801 305.76 207.191 305.62 207.152Z" fill="#FAFAFA"/>
<path d="M299.583 214.196C299.489 214.258 299.247 214.048 299.052 213.736C298.857 213.424 298.764 213.112 298.865 213.049C298.966 212.987 299.193 213.197 299.395 213.517C299.598 213.837 299.676 214.141 299.583 214.196Z" fill="#FAFAFA"/>
<path d="M300.87 228.735C300.792 228.805 300.3 228.423 299.786 227.861C299.271 227.3 298.92 226.793 299.006 226.715C299.091 226.637 299.575 227.027 300.09 227.588C300.605 228.15 300.956 228.657 300.87 228.735Z" fill="#FAFAFA"/>
<path d="M308.786 220.381C308.701 220.451 308.272 220.061 307.835 219.5C307.398 218.938 307.117 218.439 307.203 218.369C307.289 218.299 307.718 218.696 308.155 219.25C308.591 219.804 308.88 220.319 308.786 220.381Z" fill="#FAFAFA"/>
<path d="M313.131 231.902C313.03 231.855 313.209 231.27 313.529 230.599C313.849 229.928 314.184 229.414 314.309 229.46C314.434 229.507 314.239 230.1 313.919 230.771C313.599 231.442 313.233 231.956 313.131 231.902Z" fill="#FAFAFA"/>
<path d="M303.896 241.387C303.794 241.441 303.436 241.012 302.936 240.552C302.437 240.092 301.977 239.772 302.024 239.655C302.071 239.538 302.663 239.749 303.209 240.256C303.755 240.763 303.989 241.332 303.896 241.387Z" fill="#FAFAFA"/>
<path d="M304.473 251.16C304.473 251.269 304.083 251.363 303.607 251.363C303.132 251.363 302.75 251.269 302.75 251.16C302.75 251.051 303.132 250.957 303.607 250.957C304.083 250.957 304.473 251.051 304.473 251.16Z" fill="#FAFAFA"/>
<path d="M313.966 248.43C313.864 248.375 314.067 247.884 314.215 247.276C314.364 246.667 314.426 246.137 314.543 246.129C314.66 246.121 314.785 246.691 314.613 247.369C314.442 248.048 314.052 248.492 313.966 248.43Z" fill="#FAFAFA"/>
<path d="M323.396 251.714C323.294 251.753 323.006 251.199 322.756 250.489C322.507 249.779 322.39 249.171 322.491 249.14C322.592 249.109 322.889 249.647 323.138 250.357C323.388 251.066 323.505 251.675 323.396 251.714Z" fill="#FAFAFA"/>
<path d="M321.891 265.13C321.797 265.075 322.039 264.42 322.429 263.663C322.819 262.907 323.209 262.337 323.326 262.392C323.443 262.447 323.186 263.102 322.788 263.851C322.39 264.599 321.992 265.2 321.891 265.13Z" fill="#FAFAFA"/>
<path d="M313.287 273C313.186 273.039 312.866 272.501 312.57 271.791C312.273 271.081 312.125 270.473 312.234 270.426C312.343 270.379 312.655 270.925 312.944 271.635C313.233 272.345 313.389 273 313.287 273Z" fill="#FAFAFA"/>
<path d="M303.756 276.05C303.756 276.159 303.428 276.253 303.03 276.253C302.632 276.253 302.312 276.159 302.312 276.05C302.312 275.941 302.64 275.847 303.03 275.847C303.42 275.847 303.756 275.941 303.756 276.05Z" fill="#FAFAFA"/>
<path d="M309.216 288.6C309.114 288.6 308.896 288.171 308.732 287.578C308.568 286.985 308.537 286.471 308.646 286.447C308.755 286.424 308.966 286.876 309.13 287.469C309.294 288.062 309.325 288.538 309.216 288.6Z" fill="#FAFAFA"/>
<path d="M302.312 284.388C302.219 284.333 302.312 283.967 302.57 283.569C302.827 283.171 303.085 282.898 303.178 282.953C303.272 283.007 303.178 283.382 302.921 283.78C302.663 284.177 302.414 284.45 302.312 284.388Z" fill="#FAFAFA"/>
<path d="M302.172 298.202C302.063 298.202 301.907 297.679 301.829 297.001C301.751 296.322 301.775 295.768 301.884 295.753C301.993 295.737 302.149 296.275 302.227 296.954C302.305 297.632 302.282 298.186 302.172 298.202Z" fill="#FAFAFA"/>
</svg>
